<svg id="图层_1" data-name="图层 1" xmlns="http://www.w3.org/2000/svg" viewBox="0 0 841.01 63.26"><defs><style>.cls-1{fill:#4c5b58;}.cls-2{fill:#fff;}.cls-3{fill:#a4acaa;}</style></defs><title>LS2</title><path class="cls-1" d="M22.17,57.07V15.31a7,7,0,0,1,1.68-5,5.32,5.32,0,0,1,4-1.78A5.72,5.72,0,0,1,32,10.14a5.86,5.86,0,0,1,1.68,4.45V53.1c0,1-.76,1.65-2.3,1.81-1.49-.19-2.23-.88-2.23-2.09L29.24,15a1.74,1.74,0,0,0-.47-1.26,1.57,1.57,0,0,0-1.18-.48c-.78,0-1.16.52-1.16,1.58V56.2H53a6,6,0,0,1,4.49,1.62,5.82,5.82,0,0,1-.12,8.08,6.49,6.49,0,0,1-4.79,1.69H25.71A10.84,10.84,0,0,1,18.08,65a9.51,9.51,0,0,1-2.89-7.38V11.92a3.23,3.23,0,0,1,.59-2,1.83,1.83,0,0,1,1.51-.76c1.29,0,1.93,1,1.93,3V57.23A5.48,5.48,0,0,0,21.31,62a8.86,8.86,0,0,0,5.4,1.54H53.15c.85,0,1.28-.41,1.28-1.22A1.86,1.86,0,0,0,54,61a1.59,1.59,0,0,0-1.28-.51H24.77Q22.17,60.52,22.17,57.07Z" transform="translate(-15.19 -5.91)"/><path class="cls-1" d="M213.65,44.68V16.24a6.18,6.18,0,0,1,1.76-4.61,5.61,5.61,0,0,1,4-1.72,5.7,5.7,0,0,1,2.73.68,5,5,0,0,1,2,2,6.58,6.58,0,0,1,.73,3.22V64.19c0,2.75-1.07,4.12-3.23,4.12a4.92,4.92,0,0,1-2.86-1,5.78,5.78,0,0,1-2-2.56L197.46,15.31a1.66,1.66,0,0,0-1.65-1.3c-.74,0-1.17.5-1.3,1.51a2.18,2.18,0,0,1,.14.54,4.6,4.6,0,0,0,.14.62L211.93,60a8.33,8.33,0,0,1,.44,2.79,5.16,5.16,0,0,1-1.67,3.93,5.59,5.59,0,0,1-4,1.56,5.4,5.4,0,0,1-3.21-1.15,7.13,7.13,0,0,1-2.39-3.25L182.12,16v46.3a1.21,1.21,0,0,0,.43,1,1.51,1.51,0,0,0,1,.36,1.33,1.33,0,0,0,1.51-1.51V36a2.5,2.5,0,0,1,.61-1.78,1.85,1.85,0,0,1,1.41-.66,2.19,2.19,0,0,1,1.6.61,2.26,2.26,0,0,1,.63,1.69V63a4.87,4.87,0,0,1-1.71,3.89,6.05,6.05,0,0,1-4.05,1.46,5.4,5.4,0,0,1-3.77-1.41,4.84,4.84,0,0,1-1.56-3.78V14a5.75,5.75,0,0,1,.93-3.48,2.77,2.77,0,0,1,2.31-1.27,3.83,3.83,0,0,1,2.5,1A6.17,6.17,0,0,1,185.79,13l19.58,49.81c.12.35.53.62,1.23.79.87,0,1.3-.45,1.3-1.35a2.93,2.93,0,0,0-.08-.69,2.85,2.85,0,0,1-.07-.47L190.91,18a19.57,19.57,0,0,1-.87-3.51,5,5,0,0,1,1.48-3.81,5.23,5.23,0,0,1,3.71-1.38,6.61,6.61,0,0,1,3.92,1.26,7.77,7.77,0,0,1,2.71,3.79Zm.58,2.09,6.63,16.35V15.82a1.25,1.25,0,0,0-.42-1,1.55,1.55,0,0,0-1-.34c-1,0-1.44.5-1.44,1.51V44.82a1.67,1.67,0,0,1-.42,1.31,2.64,2.64,0,0,1-1.38.5,5.63,5.63,0,0,1-.86-.08,7.41,7.41,0,0,0-.95-.08C214.28,46.47,214.23,46.57,214.23,46.77Z" transform="translate(-15.19 -5.91)"/><path class="cls-1" d="M263.19,64.05a8.87,8.87,0,0,0,4.47-.87A3.37,3.37,0,0,0,269.09,60V41.45a5.51,5.51,0,0,1,5.63-5.91,6.59,6.59,0,0,1,2.93.66,5.09,5.09,0,0,1,2.16,2,6,6,0,0,1,.8,3.13V62.68c0,1,.41,1.62,1.23,1.79a1.88,1.88,0,0,0,1.12-.6,1.69,1.69,0,0,0,.46-1.19V38.2a2.38,2.38,0,0,1,.61-1.75,2,2,0,0,1,1.48-.63,2.41,2.41,0,0,1,1.66.58,2.11,2.11,0,0,1,.64,1.65V63.26a5.17,5.17,0,0,1-1.74,4.09A6,6,0,0,1,282,68.87a5.49,5.49,0,0,1-3.85-1.48,5.3,5.3,0,0,1-1.62-4.13V41.73c0-1-.5-1.44-1.51-1.44s-1.44.43-1.44,1.3V63.91q0,4.82-10.95,4.82a29.63,29.63,0,0,1-27.11-18.1,29.57,29.57,0,0,1,0-22.7,30,30,0,0,1,6.3-9.45,29.34,29.34,0,0,1,9.42-6.4,28.61,28.61,0,0,1,11.4-2.31,34.42,34.42,0,0,1,7.59,1.15,21.72,21.72,0,0,1,7.26,3.27,7.08,7.08,0,0,1,3.31,5.44,5.34,5.34,0,0,1-.78,2.68,6.78,6.78,0,0,1-2.07,2.26,5.3,5.3,0,0,1-2.78,1,.32.32,0,0,0-.17-.13l-.11,0A10.79,10.79,0,0,1,270.71,24a33.85,33.85,0,0,0-3.83-1.82,14.88,14.88,0,0,0-4.84-.57A17.74,17.74,0,0,0,255.32,23a17,17,0,0,0-5.52,3.77,17.73,17.73,0,0,0-3.73,5.69,20.42,20.42,0,0,0-1.46,7.15,16.94,16.94,0,0,0,2.4,8.71,18.94,18.94,0,0,0,6.25,6.54,15.59,15.59,0,0,0,8.06,2.53,6.92,6.92,0,0,1,.94-.17,2.87,2.87,0,0,0,1.13-.37,1,1,0,0,0,.38-.91,1.57,1.57,0,0,0-.44-1.13,1.73,1.73,0,0,0-1.29-.45,13.74,13.74,0,0,1-7.17-2,15.26,15.26,0,0,1-5.37-5.4,14.44,14.44,0,0,1-2.08-7.21,15.59,15.59,0,0,1,7.19-13.08,13.27,13.27,0,0,1,7.28-2.11q5.73,0,9.15,2.81a3.27,3.27,0,0,1,1.29,2.59,1.76,1.76,0,0,1-1.73,1.95,17.63,17.63,0,0,1-2.68-1.19,25.06,25.06,0,0,0-2.73-1.28,7.76,7.76,0,0,0-2.42-.49,10.87,10.87,0,0,0-5.48,1.44,10.72,10.72,0,0,0-4,3.89,10.42,10.42,0,0,0-1.49,5.33s0,0,.06,0a.28.28,0,0,1,0,.09A10,10,0,0,0,255,46.89,11.15,11.15,0,0,0,262.47,50a6,6,0,0,1,6,6A5.36,5.36,0,0,1,267,60a6,6,0,0,1-4.48,1.59,21.65,21.65,0,0,1-8.26-1.64A23.58,23.58,0,0,1,247,55.26a22.54,22.54,0,0,1-5-6.91A20.21,20.21,0,0,1,240.07,40a1.33,1.33,0,0,0,.16-.65,24.55,24.55,0,0,1,3-11.18,20.74,20.74,0,0,1,7.81-8,22.19,22.19,0,0,1,11.42-2.93,20.18,20.18,0,0,1,5.67.84,28,28,0,0,1,4.36,1.8,9.58,9.58,0,0,0,2.36,1l.14.16a1.53,1.53,0,0,0,1.37-1.61c-.1-.7-.95-1.46-2.52-2.28a26.82,26.82,0,0,0-5.76-2.06,26,26,0,0,0-6-.83,23.08,23.08,0,0,0-9.3,1.94,25.27,25.27,0,0,0-8,5.4,25.77,25.77,0,0,0-5.46,8,24.15,24.15,0,0,0-2,9.55.11.11,0,0,1,.11.06.16.16,0,0,1,0,.09,23.66,23.66,0,0,0,3.42,12.43,24.72,24.72,0,0,0,9.34,9A26.36,26.36,0,0,0,263.19,64.05Z" transform="translate(-15.19 -5.91)"/><path class="cls-1" d="M302.07,57.07V15.31a7,7,0,0,1,1.68-5,5.32,5.32,0,0,1,4-1.78,5.68,5.68,0,0,1,4.07,1.6,5.83,5.83,0,0,1,1.69,4.45V53.1c0,1-.77,1.65-2.3,1.81-1.49-.19-2.23-.88-2.23-2.09L309.14,15a1.74,1.74,0,0,0-.47-1.26,1.59,1.59,0,0,0-1.19-.48c-.77,0-1.16.52-1.16,1.58V56.2h26.56a6,6,0,0,1,4.5,1.62,5.82,5.82,0,0,1-.12,8.08,6.5,6.5,0,0,1-4.8,1.69H305.6A10.88,10.88,0,0,1,298,65a9.51,9.51,0,0,1-2.88-7.38V11.92a3.23,3.23,0,0,1,.59-2,1.8,1.8,0,0,1,1.5-.76c1.29,0,1.94,1,1.94,3V57.23A5.45,5.45,0,0,0,301.21,62a8.83,8.83,0,0,0,5.39,1.54H333c.86,0,1.29-.41,1.29-1.22a1.86,1.86,0,0,0-.44-1.24,1.62,1.62,0,0,0-1.29-.51H304.67Q302.08,60.52,302.07,57.07Z" transform="translate(-15.19 -5.91)"/><path class="cls-1" d="M345,66.21V40.87a2.61,2.61,0,0,0-.58-1.51L332.18,18.47a9.38,9.38,0,0,1-1.44-4,5.21,5.21,0,0,1,1.64-3.93A5.39,5.39,0,0,1,336.21,9a6.24,6.24,0,0,1,5.69,3.47L355.37,35.1a10.08,10.08,0,0,1,1,4.91V62.82q0,1,1.23,1.23c1.15-.16,1.72-.62,1.72-1.37v-21a11.09,11.09,0,0,1,1.79-5.61l12.26-20.3a2.05,2.05,0,0,0,.28-1.09c0-.76-.44-1.14-1.3-1.14a1.76,1.76,0,0,0-1.37.86l-12.1,19.37a1.32,1.32,0,0,1-.56.56,1.35,1.35,0,0,1-.58-.72L345.79,13.73a7.41,7.41,0,0,1-.4-1l-.18-.55a2.29,2.29,0,0,1,.63-1.64,2,2,0,0,1,1.53-.66,2.08,2.08,0,0,1,1.95,1.29l9.14,15.2,8.28-13.69a7.91,7.91,0,0,1,2.84-2.9,6.83,6.83,0,0,1,3.49-1,5.45,5.45,0,0,1,3.76,1.39,4.68,4.68,0,0,1,1.56,3.66,7.76,7.76,0,0,1-1.07,3.81L364.93,38.2A8.37,8.37,0,0,0,363.35,42V63a4.92,4.92,0,0,1-1.64,3.91,5.79,5.79,0,0,1-4,1.44,5.94,5.94,0,0,1-4-1.54A5.37,5.37,0,0,1,352,62.54V39.71a7.86,7.86,0,0,0-.79-2.8L337.51,14.15a1.46,1.46,0,0,0-1.37-.86c-.73,0-1.16.43-1.3,1.3l.23.51.2.42,12.82,21.81a6.19,6.19,0,0,1,.79,3.1V65.92a1.82,1.82,0,0,1-.59,1.43,2.21,2.21,0,0,1-1.5.52C345.59,67.87,345,67.32,345,66.21Z" transform="translate(-15.19 -5.91)"/><path class="cls-1" d="M422.46,32.46l10,9.93a12.18,12.18,0,0,1,2.76,3.72,11.35,11.35,0,0,1,.85,4.62A10.29,10.29,0,0,1,434.55,56a10.71,10.71,0,0,1-3.91,3.77,10.4,10.4,0,0,1-5.22,1.38A10.21,10.21,0,0,1,419,59a11.17,11.17,0,0,1-3.9-5.43,1.55,1.55,0,0,0-1.67-1.44,1.09,1.09,0,0,0-.79.44,2,2,0,0,0-.49,1c.06,0,.1,0,.11.06a.16.16,0,0,1,0,.08,12.28,12.28,0,0,0,2.51,5.14,14.13,14.13,0,0,0,4.76,3.8,13.17,13.17,0,0,0,6,1.43,13,13,0,0,0,6.72-1.83,13.68,13.68,0,0,0,4.93-4.95A13.12,13.12,0,0,0,439,50.59a14.24,14.24,0,0,0-.73-4.91,11.49,11.49,0,0,0-2.59-3.94L425,30.88a2.13,2.13,0,0,1-.72-1.51,1.93,1.93,0,0,1,.54-1.34,2.56,2.56,0,0,1,1.33-.75,2.94,2.94,0,0,1,1.81.65l10.44,10.43A17.21,17.21,0,0,1,442,43.91a18.45,18.45,0,0,1,1.09,6.68,17.47,17.47,0,0,1-2.32,8.83,17.66,17.66,0,0,1-6.32,6.44,17.44,17.44,0,0,1-8.78,2.45A19.17,19.17,0,0,1,410.85,61a14.48,14.48,0,0,1-3-7.3,6,6,0,0,1,1.6-4.19,4.93,4.93,0,0,1,3.73-1.71,6.86,6.86,0,0,1,3.34.85,5.12,5.12,0,0,1,2.27,2.4c.3.67.61,1.31.91,1.93a9,9,0,0,0,1.17,1.77,5.51,5.51,0,0,0,1.88,1.37,6.7,6.7,0,0,0,2.82.53,5.93,5.93,0,0,0,4.3-1.74,6.17,6.17,0,0,0,1.89-4.3,7.41,7.41,0,0,0-2.23-5.25l-9.86-9.51a18.92,18.92,0,0,1-3.2-4,8.75,8.75,0,0,1-1.06-4.32,9.78,9.78,0,0,1,1.4-5.1,10.18,10.18,0,0,1,3.86-3.73,11,11,0,0,1,5.47-1.38,10,10,0,0,1,8.58,5,2.15,2.15,0,0,0,1.8,1.31,1.24,1.24,0,0,0,1.16-1.17v-.28a11.34,11.34,0,0,0-4.39-5.8A13,13,0,0,0,426,14a13.2,13.2,0,0,0-6.73,1.81,13.82,13.82,0,0,0-5,4.89,13.28,13.28,0,0,0-1.94,6.76c.06,0,.1,0,.11.05a.16.16,0,0,1,0,.09,12.77,12.77,0,0,0,.91,5,12.91,12.91,0,0,0,3.05,4.18l10.3,10.28a2,2,0,0,1,.51,1.3c0,1-.65,1.74-2,2.37a3,3,0,0,1-1.44-.72L413.62,40a16.38,16.38,0,0,1-3.95-5.55,20.24,20.24,0,0,1-1.24-6.85,17.77,17.77,0,0,1,2.35-9,17.33,17.33,0,0,1,6.34-6.41,17.51,17.51,0,0,1,8.73-2.41,17,17,0,0,1,7.26,1.64A18,18,0,0,1,439,15.77a13.09,13.09,0,0,1,3.11,5.81,5.94,5.94,0,0,1-1.74,4.28,5.91,5.91,0,0,1-3.89,1.93l-.14-.16a5.76,5.76,0,0,1-5.33-3.3,4.33,4.33,0,0,0-2.28-2.17,7,7,0,0,0-2.76-.72,5.76,5.76,0,0,0-4.29,1.8A6,6,0,0,0,420,27.63,6.56,6.56,0,0,0,422.46,32.46Z" transform="translate(-15.19 -5.91)"/><path class="cls-1" d="M480.71,9.91a29.65,29.65,0,0,1,25.56,14.47A28.47,28.47,0,0,1,508,50a29.16,29.16,0,0,1-6.38,9.31,29.67,29.67,0,0,1-20.86,8.53,29.58,29.58,0,0,1-25.57-14.5,28.49,28.49,0,0,1,0-29A29.53,29.53,0,0,1,480.71,9.91Zm-.28,4.4a24.82,24.82,0,0,0-24.92,24.9,24.29,24.29,0,0,0,3.33,12.39,24.84,24.84,0,0,0,9.08,9.1,25.05,25.05,0,0,0,25,0,25.26,25.26,0,0,0,9.15-9.1,24.6,24.6,0,0,0,0-24.87A24.88,24.88,0,0,0,493,17.65,24.56,24.56,0,0,0,480.43,14.31ZM480.28,17a21.86,21.86,0,0,1,11.19,3A22.19,22.19,0,0,1,499.6,28a21.4,21.4,0,0,1,3,11,21.07,21.07,0,0,1-3,11,21.86,21.86,0,0,1-8.11,8,22.65,22.65,0,0,1-19.77,1.24,22.34,22.34,0,0,1-7.16-4.73,21.84,21.84,0,0,1-4.81-7A21.18,21.18,0,0,1,458,39.07a21.43,21.43,0,0,1,3-11,22.24,22.24,0,0,1,8.13-8.1A21.71,21.71,0,0,1,480.28,17Zm0,4.25a17.45,17.45,0,0,0-8.94,2.39,17.64,17.64,0,0,0-6.51,6.47,17.44,17.44,0,0,0,0,17.66,17.75,17.75,0,0,0,6.52,6.5,17.8,17.8,0,0,0,17.87,0,18,18,0,0,0,6.53-6.5,17.44,17.44,0,0,0,0-17.64,17.75,17.75,0,0,0-6.52-6.47A17.42,17.42,0,0,0,480.28,21.21Zm.15,3.1a15,15,0,0,1,7.54,2,14.78,14.78,0,0,1,5.49,5.36,14.17,14.17,0,0,1,2,7.42,13.83,13.83,0,0,1-2,7.28,15.23,15.23,0,0,1-26,0,13.83,13.83,0,0,1-2-7.28,14.17,14.17,0,0,1,2-7.42,14.78,14.78,0,0,1,5.49-5.36A15,15,0,0,1,480.43,24.31Zm0,4.18a10.25,10.25,0,0,0-5.27,1.43,10.9,10.9,0,0,0-3.87,3.88,10.46,10.46,0,0,0,0,10.59,10.64,10.64,0,0,0,9.14,5.2,10.67,10.67,0,0,0,5.36-1.4,10.4,10.4,0,0,0,3.87-3.81,10.47,10.47,0,0,0,0-10.58,10.9,10.9,0,0,0-3.87-3.88A10.38,10.38,0,0,0,480.43,28.49Z" transform="translate(-15.19 -5.91)"/><path class="cls-1" d="M530.6,14.45a1.62,1.62,0,0,0-1.13.48A1.52,1.52,0,0,0,529,16.1V62.82a6.22,6.22,0,0,1-1.74,4.63A5.75,5.75,0,0,1,523,69.17a5.16,5.16,0,0,1-3.85-1.67A6.25,6.25,0,0,1,517.58,63V11.78a1.67,1.67,0,0,1,.58-1.4,2.09,2.09,0,0,1,1.35-.47c1.4,0,2.09.62,2.09,1.87v50.9a1.59,1.59,0,1,0,3.1,0V15.82c0-2.12.49-3.59,1.46-4.41a7.12,7.12,0,0,1,4.58-1.22h23.4a6.62,6.62,0,0,1,4.82,1.7,5.57,5.57,0,0,1-.14,8.22,7.4,7.4,0,0,1-5.24,1.76H536.14V33h16.28a5.87,5.87,0,0,1,4.37,1.55,5.35,5.35,0,0,1,1.53,3.91,5.66,5.66,0,0,1-1.75,4.15,6.61,6.61,0,0,1-4.87,1.76H536.14v22a2.51,2.51,0,0,1-.56,1.74,1.84,1.84,0,0,1-1.45.63A1.93,1.93,0,0,1,532.7,68a2.53,2.53,0,0,1-.67-1.8V42.82c0-1.88,1-2.81,3-2.81h16.86a1.75,1.75,0,0,0,1.29-.46,1.48,1.48,0,0,0,.45-1.06c0-1-.39-1.44-1.16-1.44h-18a3,3,0,0,1-1.73-.52,1.79,1.79,0,0,1-.78-1.57V20.49a2.9,2.9,0,0,1,.81-2.12,2.85,2.85,0,0,1,2.14-.83H554c1.3,0,2-.53,2-1.58a1.51,1.51,0,0,0-.41-1.06,1.42,1.42,0,0,0-1.1-.45Z" transform="translate(-15.19 -5.91)"/><path class="cls-1" d="M605.26,21.72v44.5a1.34,1.34,0,0,1-.69,1.07,3.65,3.65,0,0,1-1.7.58,1.82,1.82,0,0,1-1.8-2V20.05c0-1.86.89-2.79,2.66-2.79h13.34c.68,0,1-.43,1-1.3s-.48-1.51-1.44-1.51H599.21a1,1,0,0,0-.79.33,1.1,1.1,0,0,0-.28.74v47.3a5,5,0,0,1-1.76,4,6.41,6.41,0,0,1-4.22,1.46,6,6,0,0,1-4.06-1.47,5,5,0,0,1-1.7-4V15.31c0-.4-.08-.64-.24-.73a2.31,2.31,0,0,0-1-.13H571.35c-.54,0-.9.4-1.07,1.21.17,1.07.58,1.6,1.21,1.6h12.39a1.73,1.73,0,0,1,1.36.56,2,2,0,0,1,.51,1.38,2.29,2.29,0,0,1-.73,1.67,2.63,2.63,0,0,1-1.93.71h-11.3a5.9,5.9,0,0,1-4.53-1.8,6.69,6.69,0,0,1-1.82-4.26A6.19,6.19,0,0,1,567,11.63a4.93,4.93,0,0,1,3.84-1.58h15a4.68,4.68,0,0,1,3.55,1.41A5,5,0,0,1,590.79,15V62.4a1.56,1.56,0,0,0,1.51,1.65c1.06-.17,1.58-.72,1.58-1.65V15a5.26,5.26,0,0,1,1.23-3.54,4,4,0,0,1,3.24-1.44h18.86a5.45,5.45,0,0,1,4.25,1.69A5.92,5.92,0,0,1,623,15.83a5.81,5.81,0,0,1-6.19,5.89Z" transform="translate(-15.19 -5.91)"/><path class="cls-1" d="M648.46,14.73l5.47,21.53,7.7-16.49a2.18,2.18,0,0,1,2.09-1.65,2.76,2.76,0,0,1,2.59,2.08l6.55,14.9a5.08,5.08,0,0,1,.3,1.37,2.34,2.34,0,0,1-.63,1.66,2.5,2.5,0,0,1-1.6.79,2.08,2.08,0,0,1-1.67-1.45l-5.61-11.93-10.16,22c-.27.55-.56.87-.86.94s-.56-.34-.76-.91a4.08,4.08,0,0,1-.31-1.19l-7.49-30.67c-.28-1.29-.89-1.93-1.81-1.93-.63,0-1,.52-1.14,1.58a1.23,1.23,0,0,1,.14.65L652.63,62.1a6.94,6.94,0,0,1,.14,1A4.49,4.49,0,0,1,651,66.69a6.26,6.26,0,0,1-4.15,1.46,5.52,5.52,0,0,1-3.56-1.3,7,7,0,0,1-2.2-4L629.16,14c0-1.88.55-2.81,1.66-2.81a2.62,2.62,0,0,1,2.6,2.23l12.09,49.11a2.14,2.14,0,0,0,1.79,1.93,1.06,1.06,0,0,0,.81-.37,1.37,1.37,0,0,0,.35-1v-.58L637,17.26a12.8,12.8,0,0,1-.35-2.6,5.86,5.86,0,0,1,1.52-4.28,5,5,0,0,1,3.67-1.56,6.28,6.28,0,0,1,4.07,1.48A8,8,0,0,1,648.46,14.73Zm21.59,42.63L663.51,43.1l-7.07,15.19A3,3,0,0,1,654.07,60a2.14,2.14,0,0,1-1.51-.66,2.46,2.46,0,0,1-.79-1.5,4.88,4.88,0,0,1,.28-.8l9.44-21a3.31,3.31,0,0,1,1-1.26,2.09,2.09,0,0,1,1.25-.48A2.19,2.19,0,0,1,665.88,36l4.61,11.53,9-32.62a7.76,7.76,0,0,1,2.43-4.2,5.75,5.75,0,0,1,3.76-1.41,5.08,5.08,0,0,1,3.71,1.46,5.39,5.39,0,0,1,1.47,4,10.12,10.12,0,0,1-.14,1.95L678.7,63c0,.95.31,1.51.93,1.67a2.34,2.34,0,0,0,2-1.81L694.54,14a4.4,4.4,0,0,1,1-1.86,1.81,1.81,0,0,1,1.28-.66c1.25,0,1.88.75,1.88,2.24v.72L686.12,62.82A7.6,7.6,0,0,1,683.39,67a7,7,0,0,1-4.34,1.56,4.7,4.7,0,0,1-3.42-1.34,5.39,5.39,0,0,1-1.47-3.78c.05-.27.1-.65.14-1.14s.1-.86.14-1.09L686.26,16v-.79c0-1.44-.44-2.16-1.3-2.16-.59,0-1.09.79-1.52,2.37L672.72,56.92c-.21,1.34-.67,2.09-1.37,2.23C670.92,59,670.48,58.41,670.05,57.36Z" transform="translate(-15.19 -5.91)"/><path class="cls-1" d="M718.37,39.87l-5.1-12.4-13,34.07a6.71,6.71,0,0,1-.28,1,1.57,1.57,0,0,0,.42,1.06,1.84,1.84,0,0,0,1,.59,2,2,0,0,0,1.58-1.51l5-13.09a3.13,3.13,0,0,1,3.11-2.1h12a4,4,0,0,1,4,3l4.89,12.88A1.52,1.52,0,0,0,733,64.47a1.22,1.22,0,0,0,1-.44,1.58,1.58,0,0,0,.37-1.07V62.1L717.51,17.82c-.13-.41-.32-1.25-.58-2.51a5.45,5.45,0,0,1,1.72-4,5.49,5.49,0,0,1,7.25-.56A6.74,6.74,0,0,1,728.16,14L747.9,65.49a2.66,2.66,0,0,1,.14,1.08c0,1.05-.67,1.58-2,1.58a2.63,2.63,0,0,1-1.46-.47,2,2,0,0,1-.91-1.25L724.28,15.31A1.6,1.6,0,0,0,722.7,14c-.66,0-1.06.5-1.22,1.51a1,1,0,0,1,.29.72L738.6,60.52a7.68,7.68,0,0,1,.44,2.6,4.2,4.2,0,0,1-1.78,3.59A7.08,7.08,0,0,1,733,68a6.52,6.52,0,0,1-3.16-.78,4.15,4.15,0,0,1-2-2.18L722.7,51.38H712.18l-4.81,12.23q-1.75,4.85-5.91,4.84a5.28,5.28,0,0,1-3.84-1.67,6.2,6.2,0,0,1-1.78-4.24,20.68,20.68,0,0,1,.58-2.95l15-39.54a4.49,4.49,0,0,1,.88-1.51,1.56,1.56,0,0,1,1.08-.58c.87,0,1.6.7,2.16,2.1L723,39.44a5.35,5.35,0,0,1,.14,1.44,3.23,3.23,0,0,1-.87,2.32,3.15,3.15,0,0,1-2.39.92H711a1.88,1.88,0,0,1-1.42-.58,2.54,2.54,0,0,1-.67-1.36,2.28,2.28,0,0,1,2.51-2.31Z" transform="translate(-15.19 -5.91)"/><path class="cls-1" d="M786.08,43.68a6.52,6.52,0,0,1-.86-1.51,1.33,1.33,0,0,1,1.07-1,15.28,15.28,0,0,0,7.46-4.1,12.75,12.75,0,0,0,3.55-7.42,11.38,11.38,0,0,0,.07-1.51,13.28,13.28,0,0,0-1.9-6.84,14.63,14.63,0,0,0-5.16-5.18,13.37,13.37,0,0,0-7-2h-6q-3.75,0-3.75,3.11v46a4.82,4.82,0,0,1-1.69,3.9,6.12,6.12,0,0,1-4.06,1.43,5.78,5.78,0,0,1-3.9-1.43,4.91,4.91,0,0,1-1.65-3.9V15.38c0-.82-.5-1.23-1.51-1.23s-1.44.46-1.44,1.37V66.07a2.42,2.42,0,0,1-.61,1.75,2.18,2.18,0,0,1-1.64.63,1.83,1.83,0,0,1-1.35-.63,2.25,2.25,0,0,1-.59-1.61V15.66a5.72,5.72,0,0,1,1.75-4.45,5.78,5.78,0,0,1,4-1.6A6,6,0,0,1,765,11.06a5.18,5.18,0,0,1,1.64,4.11V63a1.59,1.59,0,0,0,1.45,1.67,1.46,1.46,0,0,0,1.37-1.51V15.52a4.72,4.72,0,0,1,1.55-3.6,5.15,5.15,0,0,1,3.63-1.45H784A16.66,16.66,0,0,1,792.81,13a18.57,18.57,0,0,1,6.48,6.61,17.21,17.21,0,0,1,2.4,8.77,10.57,10.57,0,0,1-.07,1.45,16.68,16.68,0,0,1-3,8.44,21.32,21.32,0,0,1-7.11,6L803.06,61.1a5,5,0,0,1,.87,2.81A3.82,3.82,0,0,1,802,67.15a8,8,0,0,1-4.54,1.3,5.81,5.81,0,0,1-5.11-2.38L774.76,39.36a7,7,0,0,1-.93-2.45q.27-2.53,4.17-2.53h4.84A8.18,8.18,0,0,0,788,32.75a5.4,5.4,0,0,0,2.13-4.56,6.26,6.26,0,0,0-1.8-4.43,5.65,5.65,0,0,0-4.25-1.89h-7.57c-1.35,0-2.12-.75-2.31-2.24.18-1.49,1-2.23,2.31-2.23h7.69a9,9,0,0,1,5,1.49,10.73,10.73,0,0,1,3.62,4,10.85,10.85,0,0,1,1.32,5.19,10.69,10.69,0,0,1-.07,1.44,11.57,11.57,0,0,1-1.68,4.62,9.9,9.9,0,0,1-3.39,3.3,8.63,8.63,0,0,1-4.51,1.22h-5.62l17,24.63a4.08,4.08,0,0,0,2.23,1.21c.77,0,1.16-.28,1.16-.86a2.31,2.31,0,0,0-.3-.93Z" transform="translate(-15.19 -5.91)"/><path class="cls-1" d="M819.61,63.33l30.25.14a1.41,1.41,0,0,0,1-.39,1.32,1.32,0,0,0,.4-1c0-1-.44-1.44-1.3-1.44H834.81q-2.84,0-3.09-2.37c.18-1.4,1.12-2.09,2.81-2.09H850a6,6,0,0,1,4.71,10,5.2,5.2,0,0,1-4.13,1.71H819.32A6.89,6.89,0,0,1,814.21,66a7,7,0,0,1-1.86-5.17V15.31A5.9,5.9,0,0,1,814,10.83a5.58,5.58,0,0,1,4-1.57,5.9,5.9,0,0,1,4,1.5,5.18,5.18,0,0,1,1.7,4.11V56.92A1.53,1.53,0,0,0,825,58.59c1-.2,1.58-.76,1.58-1.67V43.1a3.51,3.51,0,0,1,.87-2.44,3.07,3.07,0,0,1,2.37-.95h16.85c1.29,0,1.94-.45,1.94-1.36s-.46-1.44-1.36-1.44H829.34c-1.78,0-2.67-.84-2.67-2.53v-14a3.06,3.06,0,0,1,.92-2.52,4.46,4.46,0,0,1,2.83-.73h18.29a2.32,2.32,0,0,0,1.47-.42,1.25,1.25,0,0,0,.54-1,1.08,1.08,0,0,0-.42-.85,1.73,1.73,0,0,0-1.16-.36H826.25a2.19,2.19,0,0,1-2.39-2.09c.19-1.54,1-2.31,2.39-2.31H849a6.7,6.7,0,0,1,4.87,1.7,5.46,5.46,0,0,1,1.75,4.07,5.39,5.39,0,0,1-1.78,4.06,7,7,0,0,1-5,1.69H831v11h16.34a5.72,5.72,0,0,1,4.37,1.61,5.34,5.34,0,0,1,1.54,3.85,5.87,5.87,0,0,1-1.75,4.27,6.52,6.52,0,0,1-4.88,1.78H831V57.21a5.55,5.55,0,0,1-1.63,4.27,6.39,6.39,0,0,1-4.14,1.64,6.3,6.3,0,0,1-4.06-1.74,5.62,5.62,0,0,1-1.71-4.31V15c0-.87-.4-1.3-1.22-1.3a1.6,1.6,0,0,0-1.13.42,1.54,1.54,0,0,0-.44,1.16V60.38a3,3,0,0,0,.78,2.14A2.84,2.84,0,0,0,819.61,63.33Z" transform="translate(-15.19 -5.91)"/><path class="cls-2" d="M-853.66,100.35" transform="translate(-15.19 -5.91)"/><path class="cls-2" d="M172.7,67.57c0,.29-.06.35-.35.35" transform="translate(-15.19 -5.91)"/><path class="cls-1" d="M106.88,29.53a19.39,19.39,0,0,0-10-9.92,17.82,17.82,0,0,0-5.4-1.42,19.17,19.17,0,0,0-15.92,5.74,18.81,18.81,0,0,0-5,9.37A18.3,18.3,0,0,0,72.2,45.48,18.68,18.68,0,0,0,75.43,50a18.88,18.88,0,0,0,10,5.58A18.5,18.5,0,0,0,97.3,54.24a19.05,19.05,0,0,0,5.73-4,19.68,19.68,0,0,0,4.71-8c.42-1.36.58-2.77.91-4.14a6.73,6.73,0,0,0,.06-1.42c.05-1,.07-1.91.18-2.86A31,31,0,0,1,110,28.17a35.59,35.59,0,0,1,2.07-5.08,28.92,28.92,0,0,1,4.47-6.54,31.48,31.48,0,0,1,10-7.51A30.59,30.59,0,0,1,136.86,6.1a31.89,31.89,0,0,1,18.21,3.29A31.38,31.38,0,0,1,168.51,22.5,29.58,29.58,0,0,1,172,33.75a30.27,30.27,0,0,1-2.7,16.15,31.22,31.22,0,0,1-7.44,10,31.72,31.72,0,0,1-15.66,7.68,32,32,0,0,1-7,.49,31.33,31.33,0,0,1-15.93-4.94,32.24,32.24,0,0,1-5.82-4.72c-.38-.4-.73-.82-1.11-1.23-.12-.12-.14-.19,0-.34a27,27,0,0,0,2.28-3.24c.15-.25.2-.28.39,0a25.87,25.87,0,0,0,3,3.33,27.45,27.45,0,0,0,5.41,3.86,25.76,25.76,0,0,0,8.14,2.83,27.4,27.4,0,0,0,8.43.11,26.21,26.21,0,0,0,13.93-6.5,26.39,26.39,0,0,0,8.63-15,24.45,24.45,0,0,0,.45-5.47,25.85,25.85,0,0,0-2.73-11.08,26.78,26.78,0,0,0-11.4-11.79,25.89,25.89,0,0,0-10.13-3.08A26.58,26.58,0,0,0,129,13.09a26.87,26.87,0,0,0-7.87,5.51,24.8,24.8,0,0,0-3.86,5.07,27.59,27.59,0,0,0-3,7.29,37.49,37.49,0,0,0-.76,5.78,29.28,29.28,0,0,1-1.52,8.43,23.93,23.93,0,0,1-4.4,7.36,23.47,23.47,0,0,1-13.32,7.69,24.12,24.12,0,0,1-21-5.73,23,23,0,0,1-7.74-17A22.56,22.56,0,0,1,67.73,27a24.32,24.32,0,0,1,3.84-5.69,23.95,23.95,0,0,1,13-7.42,24,24,0,0,1,6-.43A23.46,23.46,0,0,1,103,17.7a24.21,24.21,0,0,1,5.66,5.45.65.65,0,0,1,.1.78A31.36,31.36,0,0,0,107,29.25C106.94,29.31,106.92,29.37,106.88,29.53Z" transform="translate(-15.19 -5.91)"/><path class="cls-1" d="M122.37,44.41a18.56,18.56,0,0,0,2.68,4.43,18.86,18.86,0,0,0,13.16,7.08,18.64,18.64,0,0,0,14.59-4.86,18.33,18.33,0,0,0,6.09-11,18.08,18.08,0,0,0-2.34-12.44,18.91,18.91,0,0,0-11.73-8.91,18.14,18.14,0,0,0-6.27-.53,18.52,18.52,0,0,0-11,4.78,18.93,18.93,0,0,0-5.22,7.75,17.68,17.68,0,0,0-1.07,5.53c0,.91.07,1.82.12,2.73a15.33,15.33,0,0,1-.36,3.51,30.21,30.21,0,0,1-6.92,14.48A31.57,31.57,0,0,1,96.53,67.39a32.34,32.34,0,0,1-8.39.66,30.64,30.64,0,0,1-10.92-2.47,32.34,32.34,0,0,1-9.28-6,31.28,31.28,0,0,1-6.62-8.83,29.29,29.29,0,0,1-3.15-11.4,30.78,30.78,0,0,1,1.74-12.8A31.58,31.58,0,0,1,76,9,30.78,30.78,0,0,1,86.16,6.1,32,32,0,0,1,103.3,8.86a32.32,32.32,0,0,1,7.62,5c.78.68,1.48,1.43,2.22,2.14a.28.28,0,0,1,0,.45,29.79,29.79,0,0,0-2.66,3.93c-.17.3-.25.11-.36,0a26,26,0,0,0-3.82-3.75A26.93,26.93,0,0,0,78.25,13.1a25.89,25.89,0,0,0-7.94,5.6,26.71,26.71,0,0,0-6.15,27.18A26.89,26.89,0,0,0,81.37,62.73,25.89,25.89,0,0,0,88,63.93a26.49,26.49,0,0,0,11.67-2,26.8,26.8,0,0,0,9.71-6.85,26.21,26.21,0,0,0,6.48-12.91,37.36,37.36,0,0,0,.63-5.88,22.27,22.27,0,0,1,2.17-9A29.33,29.33,0,0,1,120.51,24a19.74,19.74,0,0,1,1.62-2.53,24.13,24.13,0,0,1,6.3-5,22.86,22.86,0,0,1,8.69-2.83,23.89,23.89,0,0,1,14,2.46,22.91,22.91,0,0,1,8.34,7.17A23.74,23.74,0,0,1,163.85,35a22.87,22.87,0,0,1-5.16,17,23.54,23.54,0,0,1-10.86,7.53,24.22,24.22,0,0,1-9.22,1.2,23.4,23.4,0,0,1-9.55-2.57,23.77,23.77,0,0,1-8.61-7.35.45.45,0,0,1-.06-.52,26.94,26.94,0,0,0,1.86-5.54A1.34,1.34,0,0,1,122.37,44.41Z" transform="translate(-15.19 -5.91)"/><path class="cls-3" d="M113.23,36.3v-.72h0v.72Z" transform="translate(-15.19 -5.91)"/><path class="cls-1" d="M105.6,36.28a15,15,0,0,0-4.23-9.82,15.9,15.9,0,0,0-13.58-5A15.67,15.67,0,0,0,77.17,26.9a15.12,15.12,0,0,0-3.81,11.63,14.92,14.92,0,0,0,5.2,10.2,16,16,0,0,0,10.89,4.15,16.64,16.64,0,0,0,2-.11,16,16,0,0,0,10.12-5.21A14.93,14.93,0,0,0,105.6,36.28ZM89.49,48.44A11.3,11.3,0,0,1,78.13,36.88a11.38,11.38,0,0,1,22.76.47A11.26,11.26,0,0,1,89.49,48.44Z" transform="translate(-15.19 -5.91)"/><path class="cls-1" d="M156.28,36.3A14.93,14.93,0,0,0,152,26.45a15.87,15.87,0,0,0-13.55-5A15.68,15.68,0,0,0,127.73,27,15.15,15.15,0,0,0,124,38.55a14.89,14.89,0,0,0,5.18,10.17,15.71,15.71,0,0,0,10.9,4.12c.5,0,1,0,1.5,0a15.94,15.94,0,0,0,9.64-4.28A15,15,0,0,0,156.28,36.3ZM140.16,48.44a11.3,11.3,0,0,1-11.35-11.56,11.38,11.38,0,0,1,22.76.48A11.27,11.27,0,0,1,140.16,48.44Z" transform="translate(-15.19 -5.91)"/></svg>