<svg id="图层_1" data-name="图层 1" xmlns="http://www.w3.org/2000/svg" viewBox="0 0 841.01 64.79"><defs><style>.cls-1{fill:#4d5b58;}.cls-2{fill:#fefefe;}.cls-3{fill:#a5acab;}</style></defs><title>LS2</title><path class="cls-1" d="M14.57,64.05V22.28a7,7,0,0,1,1.68-5,5.31,5.31,0,0,1,4-1.77,5.7,5.7,0,0,1,4.08,1.6A5.84,5.84,0,0,1,26,21.56V60.08c0,1-.77,1.64-2.31,1.81-1.48-.19-2.23-.89-2.23-2.09L21.63,22a1.72,1.72,0,0,0-.46-1.25A1.56,1.56,0,0,0,20,20.26c-.77,0-1.16.53-1.16,1.58V63.17H45.38a5.93,5.93,0,0,1,4.49,1.63,5.8,5.8,0,0,1-.11,8.07A6.49,6.49,0,0,1,45,74.56H18.1a10.86,10.86,0,0,1-7.63-2.64,9.48,9.48,0,0,1-2.88-7.38V18.89a3.21,3.21,0,0,1,.59-2,1.82,1.82,0,0,1,1.5-.75c1.29,0,1.93,1,1.93,2.95V64.21a5.47,5.47,0,0,0,2.1,4.72,8.89,8.89,0,0,0,5.39,1.54H45.54c.85,0,1.28-.41,1.28-1.22A1.8,1.8,0,0,0,46.38,68a1.59,1.59,0,0,0-1.28-.51H17.17C15.43,67.5,14.57,66.35,14.57,64.05Z" transform="translate(-7.59 -12.89)"/><path class="cls-1" d="M206.05,51.66V23.22a6.16,6.16,0,0,1,1.75-4.61,5.67,5.67,0,0,1,6.74-1.05,5,5,0,0,1,2,2,6.56,6.56,0,0,1,.74,3.21V71.17q0,4.11-3.24,4.11a4.87,4.87,0,0,1-2.85-1,5.86,5.86,0,0,1-2.05-2.56L189.86,22.28A1.69,1.69,0,0,0,188.2,21c-.73,0-1.17.51-1.3,1.52A1.8,1.8,0,0,1,187,23c.05.27.1.47.14.62L204.32,67a8.11,8.11,0,0,1,.44,2.8,5.13,5.13,0,0,1-1.67,3.93,5.62,5.62,0,0,1-4,1.55,5.36,5.36,0,0,1-3.22-1.15,7.22,7.22,0,0,1-2.39-3.24l-19-48V69.24a1.21,1.21,0,0,0,.43,1,1.52,1.52,0,0,0,1,.36,1.33,1.33,0,0,0,1.51-1.51V42.94a2.52,2.52,0,0,1,.61-1.79,1.85,1.85,0,0,1,1.41-.65,2.19,2.19,0,0,1,1.6.61,2.22,2.22,0,0,1,.64,1.69V69.94A4.81,4.81,0,0,1,180,73.82,6,6,0,0,1,176,75.28a5.47,5.47,0,0,1-3.77-1.4,4.84,4.84,0,0,1-1.55-3.78V21a5.8,5.8,0,0,1,.93-3.48,2.78,2.78,0,0,1,2.3-1.26,3.87,3.87,0,0,1,2.5,1A6.23,6.23,0,0,1,178.18,20L197.77,69.8c.11.35.52.61,1.23.79a1.17,1.17,0,0,0,1.3-1.35,3.48,3.48,0,0,0-.08-.69,2.4,2.4,0,0,1-.08-.47L183.3,24.94a18.64,18.64,0,0,1-.86-3.52,5,5,0,0,1,1.47-3.8,5.25,5.25,0,0,1,3.71-1.38,6.67,6.67,0,0,1,3.92,1.25,7.71,7.71,0,0,1,2.71,3.79Zm.58,2.09,6.62,16.35V22.79a1.23,1.23,0,0,0-.42-1,1.56,1.56,0,0,0-1-.35c-1,0-1.44.51-1.44,1.51V51.8a1.71,1.71,0,0,1-.41,1.31,2.81,2.81,0,0,1-1.38.5,7.15,7.15,0,0,1-.86-.08,7.71,7.71,0,0,0-.95-.08C206.67,53.45,206.63,53.55,206.63,53.75Z" transform="translate(-7.59 -12.89)"/><path class="cls-1" d="M255.58,71a8.85,8.85,0,0,0,4.47-.87A3.38,3.38,0,0,0,261.49,67V48.42a5.49,5.49,0,0,1,5.62-5.9,6.6,6.6,0,0,1,2.94.66,5,5,0,0,1,2.15,2,6,6,0,0,1,.8,3.13V69.66c0,1,.41,1.61,1.23,1.79a1.86,1.86,0,0,0,1.13-.61,1.71,1.71,0,0,0,.45-1.18V45.17a2.4,2.4,0,0,1,.62-1.75,2,2,0,0,1,1.47-.62,2.39,2.39,0,0,1,1.67.58,2.13,2.13,0,0,1,.64,1.65V70.24a5.14,5.14,0,0,1-1.74,4.08,6,6,0,0,1-4.1,1.52,5.53,5.53,0,0,1-3.85-1.47,5.31,5.31,0,0,1-1.62-4.13V48.7c0-1-.5-1.44-1.51-1.44s-1.44.44-1.44,1.3V70.89Q266,75.7,255,75.7a29.6,29.6,0,0,1-20.72-8.64,29.17,29.17,0,0,1-8.65-20.87,28.66,28.66,0,0,1,2.26-11.28A29.58,29.58,0,0,1,243.6,19.06,28.61,28.61,0,0,1,255,16.75a34.25,34.25,0,0,1,7.59,1.15,21.72,21.72,0,0,1,7.26,3.27,7,7,0,0,1,3.31,5.44,5.46,5.46,0,0,1-.77,2.68,6.81,6.81,0,0,1-2.08,2.26,5.18,5.18,0,0,1-2.78,1,.37.37,0,0,0-.16-.13l-.12,0A11.14,11.14,0,0,1,263.1,31a31.46,31.46,0,0,0-3.83-1.82,14.85,14.85,0,0,0-4.83-.57A17.64,17.64,0,0,0,247.71,30a16.85,16.85,0,0,0-5.52,3.77,17.7,17.7,0,0,0-3.72,5.69A20.1,20.1,0,0,0,237,46.55a17,17,0,0,0,2.4,8.72,19,19,0,0,0,6.26,6.53,15.47,15.47,0,0,0,8.06,2.53c.11,0,.43-.09.93-.17a2.88,2.88,0,0,0,1.13-.36,1,1,0,0,0,.38-.91,1.54,1.54,0,0,0-.44-1.13,1.71,1.71,0,0,0-1.28-.45,13.71,13.71,0,0,1-7.17-2,15.43,15.43,0,0,1-5.37-5.4,14.39,14.39,0,0,1-2.09-7.22A15.69,15.69,0,0,1,247,33.6a13.37,13.37,0,0,1,7.28-2.1c3.82,0,6.87.93,9.16,2.81a3.26,3.26,0,0,1,1.28,2.58,1.75,1.75,0,0,1-1.72,2,17,17,0,0,1-2.68-1.18,28.64,28.64,0,0,0-2.74-1.29,8.06,8.06,0,0,0-2.42-.48,11,11,0,0,0-5.48,1.43,10.82,10.82,0,0,0-4,3.9,10.28,10.28,0,0,0-1.48,5.32s0,0,0,.05a.51.51,0,0,1,0,.09,9.91,9.91,0,0,0,3.13,7.18A11.12,11.12,0,0,0,254.86,57,6,6,0,0,1,260.91,63a5.3,5.3,0,0,1-1.57,3.89,6,6,0,0,1-4.48,1.59,21.38,21.38,0,0,1-8.25-1.64,23.32,23.32,0,0,1-7.19-4.63,22.45,22.45,0,0,1-5-6.92A20,20,0,0,1,232.47,47a1.41,1.41,0,0,0,.15-.65,24.47,24.47,0,0,1,3-11.18,20.79,20.79,0,0,1,7.8-8,22.21,22.21,0,0,1,11.42-2.92,19.84,19.84,0,0,1,5.67.83,30.17,30.17,0,0,1,4.37,1.8,9.85,9.85,0,0,0,2.35,1l.14.16a1.52,1.52,0,0,0,1.37-1.61q-.15-1.07-2.52-2.28a25.92,25.92,0,0,0-5.76-2.06,25.42,25.42,0,0,0-6-.84,23.3,23.3,0,0,0-9.31,1.94,25.81,25.81,0,0,0-13.41,13.42,24.3,24.3,0,0,0-2.05,9.55c.06,0,.1,0,.11.05a.23.23,0,0,1,0,.09,23.69,23.69,0,0,0,3.42,12.44,24.62,24.62,0,0,0,9.34,9A26.39,26.39,0,0,0,255.58,71Z" transform="translate(-7.59 -12.89)"/><path class="cls-1" d="M294.46,64.05V22.28a7,7,0,0,1,1.68-5,5.35,5.35,0,0,1,4-1.77,5.72,5.72,0,0,1,4.08,1.6,5.83,5.83,0,0,1,1.68,4.44V60.08c0,1-.76,1.64-2.3,1.81-1.49-.19-2.23-.89-2.23-2.09l.14-37.8a1.73,1.73,0,0,0-.47-1.25,1.54,1.54,0,0,0-1.18-.49c-.78,0-1.16.53-1.16,1.58V63.17h26.56a6,6,0,0,1,4.49,1.63,5.81,5.81,0,0,1-.12,8.07,6.45,6.45,0,0,1-4.79,1.69H298a10.84,10.84,0,0,1-7.63-2.64,9.49,9.49,0,0,1-2.89-7.38V18.89a3.27,3.27,0,0,1,.59-2,1.85,1.85,0,0,1,1.51-.75c1.29,0,1.93,1,1.93,2.95V64.21a5.49,5.49,0,0,0,2.09,4.72,9,9,0,0,0,5.4,1.54h26.44c.85,0,1.28-.41,1.28-1.22a1.84,1.84,0,0,0-.44-1.24A1.59,1.59,0,0,0,325,67.5H297.06Q294.46,67.5,294.46,64.05Z" transform="translate(-7.59 -12.89)"/><path class="cls-1" d="M337.39,73.19V47.84a2.57,2.57,0,0,0-.58-1.51L324.57,25.45a9.74,9.74,0,0,1-1.44-4,5.18,5.18,0,0,1,1.65-3.93,5.4,5.4,0,0,1,3.82-1.55,6.25,6.25,0,0,1,5.7,3.46l13.46,22.68a9.92,9.92,0,0,1,1,4.9V69.8q0,1,1.23,1.23c1.15-.17,1.73-.62,1.73-1.37v-21a11,11,0,0,1,1.79-5.6l12.25-20.31A1.94,1.94,0,0,0,366,21.7c0-.76-.43-1.14-1.3-1.14a1.79,1.79,0,0,0-1.37.86L351.28,40.79a1.31,1.31,0,0,1-.57.57,1.43,1.43,0,0,1-.58-.72L338.18,20.7a9,9,0,0,1-.4-1c-.09-.31-.16-.49-.18-.55a2.27,2.27,0,0,1,.63-1.64,2,2,0,0,1,1.53-.66,2.08,2.08,0,0,1,1.95,1.28l9.14,15.21,8.28-13.7a8.15,8.15,0,0,1,2.84-2.9,6.94,6.94,0,0,1,3.49-1,5.43,5.43,0,0,1,3.76,1.39,4.62,4.62,0,0,1,1.57,3.65,7.88,7.88,0,0,1-1.07,3.82l-12.4,20.51A8.58,8.58,0,0,0,355.74,49V69.94a4.94,4.94,0,0,1-1.63,3.91,6.13,6.13,0,0,1-8-.11,5.33,5.33,0,0,1-1.74-4.22V46.68a8.1,8.1,0,0,0-.79-2.79L329.9,21.12a1.47,1.47,0,0,0-1.37-.86c-.73,0-1.16.44-1.3,1.3l.24.51c.11.25.18.39.2.43l12.81,21.81a6.18,6.18,0,0,1,.79,3.09V72.89a1.8,1.8,0,0,1-.58,1.43,2.2,2.2,0,0,1-1.51.52C338,74.84,337.39,74.29,337.39,73.19Z" transform="translate(-7.59 -12.89)"/><path class="cls-1" d="M414.86,39.44l10,9.92a12.42,12.42,0,0,1,2.76,3.73,11.29,11.29,0,0,1,.84,4.62,10.35,10.35,0,0,1-1.54,5.22A10.76,10.76,0,0,1,423,66.7a10.44,10.44,0,0,1-5.23,1.38A10.25,10.25,0,0,1,411.42,66a11.09,11.09,0,0,1-3.89-5.43,1.56,1.56,0,0,0-1.67-1.44,1.08,1.08,0,0,0-.8.44,2.09,2.09,0,0,0-.49,1,.14.14,0,0,1,.12,0,.51.51,0,0,1,0,.09,12.3,12.3,0,0,0,2.51,5.13A14.22,14.22,0,0,0,412,69.6,13.24,13.24,0,0,0,418,71a12.91,12.91,0,0,0,6.71-1.84,13.58,13.58,0,0,0,4.93-4.94,13,13,0,0,0,1.81-6.68,14.42,14.42,0,0,0-.72-4.91,11.71,11.71,0,0,0-2.6-3.95L417.39,37.86a2.14,2.14,0,0,1-.72-1.51A1.94,1.94,0,0,1,417.2,35a2.51,2.51,0,0,1,1.33-.76,3,3,0,0,1,1.81.65l10.44,10.44a17.38,17.38,0,0,1,3.66,5.54,18.68,18.68,0,0,1,1.09,6.69,17.72,17.72,0,0,1-8.65,15.26,17.21,17.21,0,0,1-8.77,2.45A19,19,0,0,1,403.25,68a14.27,14.27,0,0,1-3-7.29,5.93,5.93,0,0,1,1.59-4.19,5,5,0,0,1,3.73-1.71,6.83,6.83,0,0,1,3.34.85,5.07,5.07,0,0,1,2.27,2.4c.31.66.61,1.31.92,1.93a7.93,7.93,0,0,0,1.17,1.76,5.18,5.18,0,0,0,1.88,1.37,6.69,6.69,0,0,0,2.82.54,5.92,5.92,0,0,0,4.3-1.75,6.16,6.16,0,0,0,1.88-4.29,7.42,7.42,0,0,0-2.23-5.26l-9.86-9.51a18.89,18.89,0,0,1-3.2-4,8.75,8.75,0,0,1-1.05-4.32,9.75,9.75,0,0,1,1.4-5.11,10.2,10.2,0,0,1,3.85-3.72,11,11,0,0,1,5.47-1.38,10,10,0,0,1,8.59,5,2.13,2.13,0,0,0,1.79,1.3,1.15,1.15,0,0,0,.81-.35,1.11,1.11,0,0,0,.35-.81v-.28a11.34,11.34,0,0,0-4.39-5.8A13,13,0,0,0,418.39,21a13.19,13.19,0,0,0-6.72,1.81,13.77,13.77,0,0,0-5,4.9,13.26,13.26,0,0,0-2,6.75.14.14,0,0,1,.12,0,.18.18,0,0,1,0,.09,12.61,12.61,0,0,0,.92,5,13,13,0,0,0,3,4.18L419.11,54a2,2,0,0,1,.51,1.3q0,1.43-1.95,2.37a3,3,0,0,1-1.44-.71L406,47a16.08,16.08,0,0,1-3.94-5.54,19.81,19.81,0,0,1-1.24-6.85,17.73,17.73,0,0,1,2.35-9,17.2,17.2,0,0,1,6.33-6.4,17.41,17.41,0,0,1,8.74-2.41,17,17,0,0,1,7.25,1.63,18.15,18.15,0,0,1,5.93,4.37,13.07,13.07,0,0,1,3.1,5.81,5.91,5.91,0,0,1-1.74,4.27,5.84,5.84,0,0,1-3.89,1.93,1,1,0,0,0-.14-.15,5.74,5.74,0,0,1-5.32-3.31,4.42,4.42,0,0,0-2.29-2.17,7.11,7.11,0,0,0-2.76-.71,5.76,5.76,0,0,0-4.29,1.8,6,6,0,0,0-1.76,4.38A6.58,6.58,0,0,0,414.86,39.44Z" transform="translate(-7.59 -12.89)"/><path class="cls-1" d="M473.1,16.89a29.58,29.58,0,0,1,25.56,14.46A28.52,28.52,0,0,1,500.35,57a29.73,29.73,0,0,1-52.82,3.34,28.55,28.55,0,0,1,0-29A29.53,29.53,0,0,1,473.1,16.89Zm-.27,4.39A24.85,24.85,0,0,0,447.9,46.19a24.23,24.23,0,0,0,3.33,12.38,24.77,24.77,0,0,0,9.08,9.1,25,25,0,0,0,25,0,25,25,0,0,0,9.15-9.1,23.9,23.9,0,0,0,3.39-12.38A24.22,24.22,0,0,0,494.5,33.7a25,25,0,0,0-9.14-9.08A24.62,24.62,0,0,0,472.83,21.28Zm-.16,2.66a21.89,21.89,0,0,1,11.2,3A22.36,22.36,0,0,1,492,35a21.39,21.39,0,0,1,3,11,21.06,21.06,0,0,1-3,11,22.56,22.56,0,0,1-27.89,9.22A22.46,22.46,0,0,1,457,61.51a21.64,21.64,0,0,1-4.81-7A21.65,21.65,0,0,1,453.43,35a22.34,22.34,0,0,1,8.13-8.11A21.72,21.72,0,0,1,472.67,23.94Zm0,4.25a17.5,17.5,0,0,0-8.94,2.38,17.79,17.79,0,0,0-6.5,6.48,17.47,17.47,0,0,0,0,17.66,17.8,17.8,0,0,0,6.52,6.49,17.74,17.74,0,0,0,17.87,0,17.83,17.83,0,0,0,6.53-6.49,17.44,17.44,0,0,0,0-17.64,17.75,17.75,0,0,0-6.51-6.48A17.54,17.54,0,0,0,472.67,28.19Zm.16,3.09a15.14,15.14,0,0,1,13,7.34,14.21,14.21,0,0,1,2,7.43,13.86,13.86,0,0,1-2,7.28,15.22,15.22,0,0,1-20.54,5.34,14.94,14.94,0,0,1-5.51-5.34,14,14,0,0,1-2-7.28,14.29,14.29,0,0,1,2-7.43,15.17,15.17,0,0,1,13-7.34Zm0,4.19a10.2,10.2,0,0,0-5.27,1.43,10.72,10.72,0,0,0-3.87,3.87,10.23,10.23,0,0,0-1.44,5.29,10.11,10.11,0,0,0,1.43,5.3,10.62,10.62,0,0,0,9.15,5.2,10.62,10.62,0,0,0,5.35-1.39,10.46,10.46,0,0,0,3.88-3.82,10.48,10.48,0,0,0,0-10.57,10.74,10.74,0,0,0-3.87-3.88A10.34,10.34,0,0,0,472.83,35.47Z" transform="translate(-7.59 -12.89)"/><path class="cls-1" d="M523,21.42a1.63,1.63,0,0,0-1.14.49,1.56,1.56,0,0,0-.52,1.17V69.8a6.21,6.21,0,0,1-1.74,4.62,5.69,5.69,0,0,1-4.16,1.72,5.14,5.14,0,0,1-3.86-1.67A6.26,6.26,0,0,1,510,69.94V18.75a1.68,1.68,0,0,1,.58-1.4,2.1,2.1,0,0,1,1.35-.46q2.1,0,2.1,1.86V69.66a1.75,1.75,0,0,0,1.44,2,1.77,1.77,0,0,0,1.65-2V22.79c0-2.12.49-3.58,1.47-4.4a7.1,7.1,0,0,1,4.58-1.22h23.39a6.58,6.58,0,0,1,4.82,1.7,5.56,5.56,0,0,1-.14,8.21A7.38,7.38,0,0,1,546,28.84H528.53V40h16.28a5.86,5.86,0,0,1,4.38,1.56,5.35,5.35,0,0,1,1.53,3.91A5.69,5.69,0,0,1,549,49.62a6.6,6.6,0,0,1-4.87,1.76H528.53V73.33a2.55,2.55,0,0,1-.55,1.75,1.85,1.85,0,0,1-1.46.62,2,2,0,0,1-1.43-.72,2.55,2.55,0,0,1-.67-1.79V49.79c0-1.87,1-2.81,3-2.81h16.85a1.71,1.71,0,0,0,1.29-.46,1.44,1.44,0,0,0,.45-1.05c0-1-.39-1.44-1.16-1.44h-18a3.05,3.05,0,0,1-1.74-.53,1.76,1.76,0,0,1-.78-1.56V27.47a2.91,2.91,0,0,1,.81-2.13,2.86,2.86,0,0,1,2.14-.82h19.16q2,0,2-1.59a1.49,1.49,0,0,0-.41-1.06,1.41,1.41,0,0,0-1.1-.45Z" transform="translate(-7.59 -12.89)"/><path class="cls-1" d="M597.65,28.7V73.19a1.31,1.31,0,0,1-.69,1.07,3.54,3.54,0,0,1-1.69.58,1.81,1.81,0,0,1-1.8-2V27c0-1.86.88-2.79,2.65-2.79h13.34c.68,0,1-.44,1-1.31S610,21.42,609,21.42H591.6a1,1,0,0,0-.79.34,1.16,1.16,0,0,0-.28.74V69.8a4.91,4.91,0,0,1-1.76,4,6.33,6.33,0,0,1-4.21,1.46,6,6,0,0,1-4.07-1.47,5,5,0,0,1-1.7-4V22.28c0-.39-.08-.64-.24-.73a2.47,2.47,0,0,0-1-.13H563.74c-.54,0-.89.41-1.07,1.22.18,1.06.58,1.6,1.21,1.6h12.4a1.75,1.75,0,0,1,1.36.55,2,2,0,0,1,.5,1.39,2.23,2.23,0,0,1-.73,1.66,2.63,2.63,0,0,1-1.93.72h-11.3a5.83,5.83,0,0,1-4.52-1.81,6.59,6.59,0,0,1-1.82-4.25,6.13,6.13,0,0,1,1.57-3.89A4.94,4.94,0,0,1,563.25,17h15a4.71,4.71,0,0,1,3.54,1.4A5,5,0,0,1,583.18,22V69.38A1.58,1.58,0,0,0,584.7,71c1-.18,1.58-.73,1.58-1.65V22a5.3,5.3,0,0,1,1.22-3.53A4,4,0,0,1,590.74,17H609.6a5.41,5.41,0,0,1,4.25,1.69,5.94,5.94,0,0,1-4.67,10Z" transform="translate(-7.59 -12.89)"/><path class="cls-1" d="M640.86,21.7l5.46,21.54L654,26.75a2.19,2.19,0,0,1,2.1-1.65,2.75,2.75,0,0,1,2.58,2.07l6.56,14.91a5.08,5.08,0,0,1,.3,1.37,2.36,2.36,0,0,1-.64,1.66,2.47,2.47,0,0,1-1.6.78,2.05,2.05,0,0,1-1.67-1.44l-5.6-11.94-10.16,22q-.4.83-.87.93c-.3,0-.56-.34-.76-.9a4.16,4.16,0,0,1-.31-1.19l-7.49-30.67c-.28-1.29-.88-1.94-1.81-1.94-.63,0-1,.53-1.14,1.58a1.23,1.23,0,0,1,.14.65L645,69.08a5.76,5.76,0,0,1,.14,1,4.51,4.51,0,0,1-1.74,3.57,6.24,6.24,0,0,1-4.14,1.45,5.45,5.45,0,0,1-3.56-1.3,7,7,0,0,1-2.21-4L621.56,21c0-1.87.55-2.81,1.65-2.81a2.62,2.62,0,0,1,2.6,2.23L637.9,69.52a2.15,2.15,0,0,0,1.8,1.93,1.11,1.11,0,0,0,.81-.38,1.37,1.37,0,0,0,.35-1v-.58L629.4,24.24a12.21,12.21,0,0,1-.35-2.61,5.85,5.85,0,0,1,1.52-4.28,4.94,4.94,0,0,1,3.66-1.55,6.31,6.31,0,0,1,4.07,1.47A8,8,0,0,1,640.86,21.7Zm21.58,42.63L655.9,50.08l-7.06,15.18A3,3,0,0,1,646.47,67a2.14,2.14,0,0,1-1.52-.66,2.51,2.51,0,0,1-.79-1.5,3.92,3.92,0,0,1,.28-.79l9.44-20.95a3.28,3.28,0,0,1,1-1.26,2.07,2.07,0,0,1,1.25-.48,2.18,2.18,0,0,1,2.16,1.58l4.6,11.53,9-32.63a7.76,7.76,0,0,1,2.43-4.2,5.81,5.81,0,0,1,3.76-1.4,5,5,0,0,1,3.71,1.46,5.37,5.37,0,0,1,1.48,4,11.21,11.21,0,0,1-.14,2l-12,46.28c0,1,.31,1.5.93,1.67a2.35,2.35,0,0,0,2-1.81L686.93,21a4.31,4.31,0,0,1,1-1.85,1.77,1.77,0,0,1,1.27-.66c1.26,0,1.88.74,1.88,2.23v.72L678.51,69.8A7.64,7.64,0,0,1,675.79,74a7,7,0,0,1-4.35,1.55A4.69,4.69,0,0,1,668,74.23a5.43,5.43,0,0,1-1.46-3.78c0-.27.09-.65.14-1.14a8.79,8.79,0,0,1,.14-1.09l11.81-45.29v-.79c0-1.44-.43-2.16-1.3-2.16-.59,0-1.09.79-1.51,2.37L665.12,63.89c-.22,1.35-.67,2.09-1.38,2.23C663.31,66,662.88,65.39,662.44,64.33Z" transform="translate(-7.59 -12.89)"/><path class="cls-1" d="M710.77,46.84l-5.1-12.39-13,34.06a7.06,7.06,0,0,1-.29,1,1.53,1.53,0,0,0,.43,1,1.76,1.76,0,0,0,1,.6,2,2,0,0,0,1.58-1.51l5-13.1a3.15,3.15,0,0,1,3.12-2.09h11.95a4,4,0,0,1,4,3l4.89,12.89a1.53,1.53,0,0,0,1.16,1.14,1.24,1.24,0,0,0,1-.44,1.58,1.58,0,0,0,.37-1.07v-.86L709.9,24.8c-.12-.41-.32-1.25-.58-2.52a5.39,5.39,0,0,1,1.73-4,5.49,5.49,0,0,1,7.25-.56A6.77,6.77,0,0,1,720.56,21L740.3,72.47a2.79,2.79,0,0,1,.14,1.07c0,1.06-.68,1.58-2,1.58a2.63,2.63,0,0,1-1.47-.46A2,2,0,0,1,736,73.4L716.67,22.28a1.61,1.61,0,0,0-1.58-1.3c-.66,0-1.06.51-1.21,1.52a1,1,0,0,1,.28.72L731,67.5a7.93,7.93,0,0,1,.44,2.6,4.18,4.18,0,0,1-1.79,3.58,7,7,0,0,1-4.26,1.3,6.45,6.45,0,0,1-3.15-.78,4.05,4.05,0,0,1-2-2.17l-5.19-13.68H704.58l-4.82,12.24q-1.75,4.83-5.9,4.83A5.21,5.21,0,0,1,690,73.75a6.17,6.17,0,0,1-1.79-4.23,22.39,22.39,0,0,1,.58-3L703.86,27a4.18,4.18,0,0,1,.88-1.51,1.5,1.5,0,0,1,1.07-.58c.88,0,1.6.7,2.16,2.09l7.42,19.39a5.35,5.35,0,0,1,.14,1.44,3.23,3.23,0,0,1-.87,2.32,3.12,3.12,0,0,1-2.38.91h-8.84a1.87,1.87,0,0,1-1.43-.58,2.61,2.61,0,0,1-.67-1.36,2.29,2.29,0,0,1,2.52-2.31Z" transform="translate(-7.59 -12.89)"/><path class="cls-1" d="M778.48,50.66a6.42,6.42,0,0,1-.86-1.52,1.3,1.3,0,0,1,1.06-1A15.27,15.27,0,0,0,786.15,44a12.83,12.83,0,0,0,3.54-7.42,11.38,11.38,0,0,0,.07-1.51,13.28,13.28,0,0,0-1.9-6.84,14.39,14.39,0,0,0-5.16-5.18,13.28,13.28,0,0,0-7-2h-6.05c-2.5,0-3.74,1-3.74,3.12v46a4.83,4.83,0,0,1-1.7,3.9,6.09,6.09,0,0,1-4.05,1.42,5.73,5.73,0,0,1-3.9-1.43,4.85,4.85,0,0,1-1.66-3.89V22.35c0-.82-.5-1.23-1.51-1.23s-1.44.46-1.44,1.38V73.05a2.39,2.39,0,0,1-.61,1.75,2.2,2.2,0,0,1-1.63.62,1.82,1.82,0,0,1-1.35-.62,2.22,2.22,0,0,1-.59-1.61V22.64a5.72,5.72,0,0,1,5.75-6.05A6,6,0,0,1,757.37,18a5.17,5.17,0,0,1,1.65,4.1v47.8a1.6,1.6,0,0,0,1.44,1.67,1.47,1.47,0,0,0,1.37-1.51V22.5a4.7,4.7,0,0,1,1.56-3.61A5.15,5.15,0,0,1,767,17.45h9.42a16.6,16.6,0,0,1,8.76,2.48,18.36,18.36,0,0,1,6.49,6.61,17.18,17.18,0,0,1,2.4,8.77,12.41,12.41,0,0,1-.07,1.44,16.82,16.82,0,0,1-3,8.45,21.5,21.5,0,0,1-7.1,6l11.52,16.84a5,5,0,0,1,.86,2.81,3.82,3.82,0,0,1-1.94,3.23,8,8,0,0,1-4.54,1.3,5.82,5.82,0,0,1-5.11-2.37L767.16,46.33a7,7,0,0,1-.93-2.44q.25-2.53,4.17-2.53h4.83a8.24,8.24,0,0,0,5.14-1.63,5.4,5.4,0,0,0,2.13-4.56,6.26,6.26,0,0,0-1.79-4.43,5.67,5.67,0,0,0-4.26-1.9h-7.57c-1.35,0-2.12-.74-2.3-2.23.17-1.49.94-2.23,2.3-2.23h7.7a9,9,0,0,1,5,1.49A11.06,11.06,0,0,1,786.53,35a12.68,12.68,0,0,1-.07,1.44,11.64,11.64,0,0,1-1.69,4.61,10.09,10.09,0,0,1-3.38,3.31,8.75,8.75,0,0,1-4.51,1.22h-5.63l17,24.63a4.08,4.08,0,0,0,2.23,1.21c.78,0,1.16-.29,1.16-.86a2.31,2.31,0,0,0-.3-.93Z" transform="translate(-7.59 -12.89)"/><path class="cls-1" d="M812,70.31l30.25.14a1.42,1.42,0,0,0,1-.4,1.33,1.33,0,0,0,.39-1c0-1-.43-1.44-1.3-1.44H827.2c-1.88,0-2.91-.8-3.09-2.38.19-1.39,1.12-2.09,2.81-2.09h15.47A6,6,0,0,1,847,64.88a6.29,6.29,0,0,1,.09,8.26,5.21,5.21,0,0,1-4.13,1.7H811.72A6.86,6.86,0,0,1,806.6,73a7,7,0,0,1-1.86-5.17V22.28a5.89,5.89,0,0,1,1.65-4.47,5.55,5.55,0,0,1,4-1.57,6,6,0,0,1,4.06,1.49,5.2,5.2,0,0,1,1.69,4.11V63.89a1.52,1.52,0,0,0,1.23,1.67c1.06-.2,1.58-.75,1.58-1.67V50.08a3.49,3.49,0,0,1,.87-2.44,3,3,0,0,1,2.37-1H839c1.29,0,1.93-.45,1.93-1.35s-.45-1.44-1.35-1.44H821.74c-1.78,0-2.68-.85-2.68-2.53v-14a3,3,0,0,1,.92-2.52,4.48,4.48,0,0,1,2.83-.73h18.3a2.34,2.34,0,0,0,1.47-.42,1.3,1.3,0,0,0,.53-1,1.1,1.1,0,0,0-.42-.86,1.73,1.73,0,0,0-1.16-.36H818.64a2.18,2.18,0,0,1-2.39-2.09,2.25,2.25,0,0,1,2.39-2.3h22.75a6.72,6.72,0,0,1,4.88,1.69A5.51,5.51,0,0,1,848,22.79a5.37,5.37,0,0,1-1.79,4.06,6.94,6.94,0,0,1-5,1.69H823.39v11h16.35a5.79,5.79,0,0,1,4.37,1.61A5.4,5.4,0,0,1,845.64,45a5.86,5.86,0,0,1-1.75,4.26A6.5,6.5,0,0,1,839,51.08H823.39V64.19a5.49,5.49,0,0,1-1.63,4.26,5.79,5.79,0,0,1-8.19-.09,5.63,5.63,0,0,1-1.71-4.31V22c0-.86-.41-1.3-1.22-1.3a1.58,1.58,0,0,0-1.13.42,1.53,1.53,0,0,0-.45,1.16V67.35a3,3,0,0,0,.78,2.15A2.86,2.86,0,0,0,812,70.31Z" transform="translate(-7.59 -12.89)"/><path class="cls-2" d="M108.43,77.67H51.26c-.29,0-.35-.07-.35-.36V13.24c0-.29.06-.35.35-.35H165.67c.29,0,.36.06.36.35q0,32,0,64.08c0,.29-.07.36-.36.36Z" transform="translate(-7.59 -12.89)"/><path class="cls-1" d="M100.2,37.37a19.26,19.26,0,0,0-10-9.91A18.27,18.27,0,0,0,84.75,26a19.17,19.17,0,0,0-9.52,1.37A19.16,19.16,0,0,0,63.89,41.14a18.29,18.29,0,0,0,1.63,12.18,19.12,19.12,0,0,0,25.11,8.77,19.21,19.21,0,0,0,5.73-4,19.53,19.53,0,0,0,4.7-8c.43-1.35.59-2.76.92-4.13a7.47,7.47,0,0,0,.06-1.42c0-1,.07-1.92.18-2.86A32.1,32.1,0,0,1,103.34,36a36,36,0,0,1,2.07-5.07,29.25,29.25,0,0,1,4.47-6.54,31.48,31.48,0,0,1,10-7.51A30.59,30.59,0,0,1,130.18,14a31.74,31.74,0,0,1,18.22,3.29,31.3,31.3,0,0,1,13.43,13.11,29.19,29.19,0,0,1,3.48,11.24,30.16,30.16,0,0,1-2.7,16.15,30.82,30.82,0,0,1-7.44,10,31.62,31.62,0,0,1-15.65,7.69,32,32,0,0,1-7,.48A31.17,31.17,0,0,1,116.6,71a32.17,32.17,0,0,1-5.81-4.72c-.39-.39-.74-.82-1.12-1.22-.11-.12-.14-.19,0-.34a25.82,25.82,0,0,0,2.27-3.24c.16-.26.21-.29.39,0a25.15,25.15,0,0,0,3,3.32,27,27,0,0,0,5.4,3.86,25.68,25.68,0,0,0,8.14,2.83,27.46,27.46,0,0,0,8.44.11,26.19,26.19,0,0,0,13.93-6.49,26.48,26.48,0,0,0,8.63-15,25.19,25.19,0,0,0,.44-5.48,25.91,25.91,0,0,0-2.72-11.08A26.78,26.78,0,0,0,146.21,21.7a25.84,25.84,0,0,0-10.13-3.08,26.72,26.72,0,0,0-21.68,7.83,25.16,25.16,0,0,0-3.86,5.07,27.64,27.64,0,0,0-3,7.28,36.28,36.28,0,0,0-.76,5.79A29.62,29.62,0,0,1,105.23,53a24.13,24.13,0,0,1-4.4,7.36,23.49,23.49,0,0,1-13.32,7.68,24.13,24.13,0,0,1-21-5.72,23.14,23.14,0,0,1-7.12-11.86,23.72,23.72,0,0,1-.63-5.1,22.73,22.73,0,0,1,2.31-10.51A24.11,24.11,0,0,1,77.93,21.76a24.53,24.53,0,0,1,6-.43A23.59,23.59,0,0,1,96.3,25.55,24.56,24.56,0,0,1,102,31a.68.68,0,0,1,.1.79,31.36,31.36,0,0,0-1.78,5.32C100.26,37.16,100.24,37.22,100.2,37.37Z" transform="translate(-7.59 -12.89)"/><path class="cls-1" d="M115.69,52.26a19.38,19.38,0,0,0,15.85,11.51,18.64,18.64,0,0,0,14.58-4.86,18.65,18.65,0,0,0,3.76-23.47,19,19,0,0,0-11.74-8.92,18.05,18.05,0,0,0-6.26-.52,18.49,18.49,0,0,0-11,4.78,18.7,18.7,0,0,0-5.22,7.75,17.4,17.4,0,0,0-1.07,5.53c0,.9.06,1.82.11,2.73a15.37,15.37,0,0,1-.35,3.51,30.24,30.24,0,0,1-6.93,14.47A31.46,31.46,0,0,1,89.85,75.24a32.29,32.29,0,0,1-8.38.66,31,31,0,0,1-10.93-2.48,32.23,32.23,0,0,1-9.28-6,31.39,31.39,0,0,1-6.61-8.83,29.3,29.3,0,0,1-3.16-11.41,30.6,30.6,0,0,1,7.12-22.07,31.3,31.3,0,0,1,10.67-8.25A30.49,30.49,0,0,1,79.48,14a32,32,0,0,1,17.15,2.76,32.41,32.41,0,0,1,7.62,5c.78.68,1.48,1.43,2.22,2.14.17.16.17.27,0,.45a29.79,29.79,0,0,0-2.66,3.93c-.18.3-.26.11-.37,0a25.42,25.42,0,0,0-3.81-3.74,27,27,0,0,0-28.08-3.48,26,26,0,0,0-7.95,5.61,26.71,26.71,0,0,0-6.14,27.17A26.93,26.93,0,0,0,74.7,70.58a25.46,25.46,0,0,0,6.65,1.19A26.3,26.3,0,0,0,93,69.8,26.93,26.93,0,0,0,102.73,63a26.21,26.21,0,0,0,6.48-12.91,38.57,38.57,0,0,0,.62-5.88,22.35,22.35,0,0,1,2.17-9,29.41,29.41,0,0,1,1.84-3.29,18.11,18.11,0,0,1,1.62-2.53,24.25,24.25,0,0,1,6.29-5,22.92,22.92,0,0,1,8.69-2.83,23.71,23.71,0,0,1,14,2.46,22.63,22.63,0,0,1,8.34,7.16,23.79,23.79,0,0,1,4.43,11.7,22.92,22.92,0,0,1-5.17,17,23.63,23.63,0,0,1-10.86,7.53,24.2,24.2,0,0,1-9.22,1.2,23.35,23.35,0,0,1-9.54-2.57,23.78,23.78,0,0,1-8.61-7.35.45.45,0,0,1-.06-.52,27.15,27.15,0,0,0,1.86-5.54A1,1,0,0,1,115.69,52.26Z" transform="translate(-7.59 -12.89)"/><path class="cls-1" d="M82.78,60.72a15.93,15.93,0,0,1-10.9-4.14,14.87,14.87,0,0,1-5.19-10.2,15.15,15.15,0,0,1,3.8-11.63,15.68,15.68,0,0,1,10.62-5.47,15.93,15.93,0,0,1,13.59,5,15.48,15.48,0,0,1,.2,21.1,16,16,0,0,1-10.12,5.2A13.41,13.41,0,0,1,82.78,60.72Z" transform="translate(-7.59 -12.89)"/><path class="cls-1" d="M133.44,60.68a15.72,15.72,0,0,1-10.89-4.11,14.91,14.91,0,0,1-5.18-10.17,15.07,15.07,0,0,1,3.69-11.52,15.69,15.69,0,0,1,10.75-5.6,15.94,15.94,0,0,1,13.55,5,14.94,14.94,0,0,1,4.24,9.86,15,15,0,0,1-5,12.25,16,16,0,0,1-9.64,4.28C134.45,60.72,133.94,60.68,133.44,60.68Z" transform="translate(-7.59 -12.89)"/><path class="cls-3" d="M106.55,44.14v-.71h0v.72Z" transform="translate(-7.59 -12.89)"/><path class="cls-2" d="M82.81,56.28A11.3,11.3,0,0,1,71.45,44.73a11.39,11.39,0,0,1,22.77.47A11.27,11.27,0,0,1,82.81,56.28Z" transform="translate(-7.59 -12.89)"/><path class="cls-2" d="M133.48,56.28a11.29,11.29,0,0,1-11.35-11.56,11.38,11.38,0,0,1,22.76.48A11.25,11.25,0,0,1,133.48,56.28Z" transform="translate(-7.59 -12.89)"/></svg>