<svg id="图层_1" data-name="图层 1" xmlns="http://www.w3.org/2000/svg" viewBox="0 0 846.9 80.89"><defs><style>.cls-1{font-size:72px;font-family:EklekticPlain, Eklektic;}.cls-1,.cls-5{fill:#4d5b58;}.cls-2{letter-spacing:-0.15em;}.cls-3{letter-spacing:-0.12em;}.cls-4{fill:#fefefe;}.cls-6{fill:#a5acab;}</style></defs><title>LS2</title><text class="cls-1" transform="translate(0 64.98)"><tspan xml:space="preserve">L     ng</tspan><tspan class="cls-2" x="279.9" y="0">L</tspan><tspan x="317.27" y="0">y Soft</tspan><tspan class="cls-3" x="614.83" y="0">w</tspan><tspan x="681.94" y="0">are</tspan></text><path class="cls-4" d="M108.43,77.67H51.26c-.29,0-.35-.07-.35-.36V13.24c0-.29.06-.35.35-.35H165.67c.29,0,.36.06.36.35q0,32,0,64.08c0,.29-.07.36-.36.36Z" transform="translate(-3.77 -9.86)"/><path class="cls-5" d="M100.2,37.37a19.26,19.26,0,0,0-10-9.91A18.27,18.27,0,0,0,84.75,26a19.17,19.17,0,0,0-9.52,1.37A19.16,19.16,0,0,0,63.89,41.14a18.29,18.29,0,0,0,1.63,12.18,19.12,19.12,0,0,0,25.11,8.77,19.21,19.21,0,0,0,5.73-4,19.53,19.53,0,0,0,4.7-8c.43-1.35.59-2.76.92-4.13a7.47,7.47,0,0,0,.06-1.42c0-1,.07-1.92.18-2.86A32.1,32.1,0,0,1,103.34,36a36,36,0,0,1,2.07-5.07,29.25,29.25,0,0,1,4.47-6.54,31.48,31.48,0,0,1,10-7.51A30.59,30.59,0,0,1,130.18,14a31.74,31.74,0,0,1,18.22,3.29,31.3,31.3,0,0,1,13.43,13.11,29.19,29.19,0,0,1,3.48,11.24,30.16,30.16,0,0,1-2.7,16.15,30.82,30.82,0,0,1-7.44,10,31.62,31.62,0,0,1-15.65,7.69,32,32,0,0,1-7,.48A31.17,31.17,0,0,1,116.6,71a32.17,32.17,0,0,1-5.81-4.72c-.39-.39-.74-.82-1.12-1.22-.11-.12-.14-.19,0-.34a25.82,25.82,0,0,0,2.27-3.24c.16-.26.21-.29.39,0a25.15,25.15,0,0,0,3,3.32,27,27,0,0,0,5.4,3.86,25.68,25.68,0,0,0,8.14,2.83,27.46,27.46,0,0,0,8.44.11,26.19,26.19,0,0,0,13.93-6.49,26.48,26.48,0,0,0,8.63-15,25.19,25.19,0,0,0,.44-5.48,25.91,25.91,0,0,0-2.72-11.08A26.78,26.78,0,0,0,146.21,21.7a25.84,25.84,0,0,0-10.13-3.08,26.72,26.72,0,0,0-21.68,7.83,25.16,25.16,0,0,0-3.86,5.07,27.64,27.64,0,0,0-3,7.28,36.28,36.28,0,0,0-.76,5.79A29.62,29.62,0,0,1,105.23,53a24.13,24.13,0,0,1-4.4,7.36,23.49,23.49,0,0,1-13.32,7.68,24.13,24.13,0,0,1-21-5.72,23.14,23.14,0,0,1-7.12-11.86,23.72,23.72,0,0,1-.63-5.1,22.73,22.73,0,0,1,2.31-10.51A24.11,24.11,0,0,1,77.93,21.76a24.53,24.53,0,0,1,6-.43A23.59,23.59,0,0,1,96.3,25.55,24.56,24.56,0,0,1,102,31a.68.68,0,0,1,.1.79,31.36,31.36,0,0,0-1.78,5.32C100.26,37.16,100.24,37.22,100.2,37.37Z" transform="translate(-3.77 -9.86)"/><path class="cls-5" d="M115.69,52.26a19.38,19.38,0,0,0,15.85,11.51,18.64,18.64,0,0,0,14.58-4.86,18.65,18.65,0,0,0,3.76-23.47,19,19,0,0,0-11.74-8.92,18.05,18.05,0,0,0-6.26-.52,18.49,18.49,0,0,0-11,4.78,18.7,18.7,0,0,0-5.22,7.75,17.4,17.4,0,0,0-1.07,5.53c0,.9.06,1.82.11,2.73a15.37,15.37,0,0,1-.35,3.51,30.24,30.24,0,0,1-6.93,14.47A31.46,31.46,0,0,1,89.85,75.24a32.29,32.29,0,0,1-8.38.66,31,31,0,0,1-10.93-2.48,32.23,32.23,0,0,1-9.28-6,31.39,31.39,0,0,1-6.61-8.83,29.3,29.3,0,0,1-3.16-11.41,30.6,30.6,0,0,1,7.12-22.07,31.3,31.3,0,0,1,10.67-8.25A30.49,30.49,0,0,1,79.48,14a32,32,0,0,1,17.15,2.76,32.41,32.41,0,0,1,7.62,5c.78.68,1.48,1.43,2.22,2.14.17.16.17.27,0,.45a29.79,29.79,0,0,0-2.66,3.93c-.18.3-.26.11-.37,0a25.42,25.42,0,0,0-3.81-3.74,27,27,0,0,0-28.08-3.48,26,26,0,0,0-7.95,5.61,26.71,26.71,0,0,0-6.14,27.17A26.93,26.93,0,0,0,74.7,70.58a25.46,25.46,0,0,0,6.65,1.19A26.3,26.3,0,0,0,93,69.8,26.93,26.93,0,0,0,102.73,63a26.21,26.21,0,0,0,6.48-12.91,38.57,38.57,0,0,0,.62-5.88,22.35,22.35,0,0,1,2.17-9,29.41,29.41,0,0,1,1.84-3.29,18.11,18.11,0,0,1,1.62-2.53,24.25,24.25,0,0,1,6.29-5,22.92,22.92,0,0,1,8.69-2.83,23.71,23.71,0,0,1,14,2.46,22.63,22.63,0,0,1,8.34,7.16,23.79,23.79,0,0,1,4.43,11.7,22.92,22.92,0,0,1-5.17,17,23.63,23.63,0,0,1-10.86,7.53,24.2,24.2,0,0,1-9.22,1.2,23.35,23.35,0,0,1-9.54-2.57,23.78,23.78,0,0,1-8.61-7.35.45.45,0,0,1-.06-.52,27.15,27.15,0,0,0,1.86-5.54A1,1,0,0,1,115.69,52.26Z" transform="translate(-3.77 -9.86)"/><path class="cls-5" d="M82.78,60.72a15.93,15.93,0,0,1-10.9-4.14,14.87,14.87,0,0,1-5.19-10.2,15.15,15.15,0,0,1,3.8-11.63,15.68,15.68,0,0,1,10.62-5.47,15.93,15.93,0,0,1,13.59,5,15.48,15.48,0,0,1,.2,21.1,16,16,0,0,1-10.12,5.2A13.41,13.41,0,0,1,82.78,60.72Z" transform="translate(-3.77 -9.86)"/><path class="cls-5" d="M133.44,60.68a15.72,15.72,0,0,1-10.89-4.11,14.91,14.91,0,0,1-5.18-10.17,15.07,15.07,0,0,1,3.69-11.52,15.69,15.69,0,0,1,10.75-5.6,15.94,15.94,0,0,1,13.55,5,14.94,14.94,0,0,1,4.24,9.86,15,15,0,0,1-5,12.25,16,16,0,0,1-9.64,4.28C134.45,60.72,133.94,60.68,133.44,60.68Z" transform="translate(-3.77 -9.86)"/><path class="cls-6" d="M106.55,44.14v-.71h0v.72Z" transform="translate(-3.77 -9.86)"/><path class="cls-4" d="M82.81,56.28A11.3,11.3,0,0,1,71.45,44.73a11.39,11.39,0,0,1,22.77.47A11.27,11.27,0,0,1,82.81,56.28Z" transform="translate(-3.77 -9.86)"/><path class="cls-4" d="M133.48,56.28a11.29,11.29,0,0,1-11.35-11.56,11.38,11.38,0,0,1,22.76.48A11.25,11.25,0,0,1,133.48,56.28Z" transform="translate(-3.77 -9.86)"/></svg>