<svg id="图层_1" data-name="图层 1" xmlns="http://www.w3.org/2000/svg" viewBox="0 0 859.11 60.63"><defs><style>.cls-1{fill:#4c5a58;}</style></defs><title>LS2</title><path class="cls-1" d="M13.69,67.19V25.43a7,7,0,0,1,1.67-5,5.32,5.32,0,0,1,4-1.78,5.7,5.7,0,0,1,4.08,1.6,5.86,5.86,0,0,1,1.69,4.45V63.22c0,1-.77,1.65-2.31,1.81-1.48-.18-2.23-.88-2.23-2.09l.14-37.79a1.73,1.73,0,0,0-.46-1.26,1.59,1.59,0,0,0-1.19-.48c-.77,0-1.16.53-1.16,1.58V66.32H44.5A6,6,0,0,1,49,67.94,5.84,5.84,0,0,1,48.88,76a6.53,6.53,0,0,1-4.8,1.69H17.22a10.86,10.86,0,0,1-7.63-2.64,9.51,9.51,0,0,1-2.88-7.38V22a3.17,3.17,0,0,1,.59-2,1.8,1.8,0,0,1,1.5-.76c1.29,0,1.93,1,1.93,3V67.35a5.48,5.48,0,0,0,2.09,4.72,8.88,8.88,0,0,0,5.4,1.54H44.66c.85,0,1.28-.41,1.28-1.22a1.81,1.81,0,0,0-.44-1.24,1.59,1.59,0,0,0-1.28-.51H16.29C14.55,70.64,13.69,69.49,13.69,67.19Z" transform="translate(-6.71 -18.66)"/><path class="cls-1" d="M84.46,20A29.62,29.62,0,0,1,110,34.5a28.44,28.44,0,0,1,1.69,25.65A29.72,29.72,0,0,1,58.9,63.49a28.49,28.49,0,0,1,0-29A29.53,29.53,0,0,1,84.46,20Zm-.27,4.4A24.82,24.82,0,0,0,59.27,49.34,24.25,24.25,0,0,0,62.6,61.72a24.69,24.69,0,0,0,9.08,9.1,25.05,25.05,0,0,0,25,0,25.18,25.18,0,0,0,9.15-9.1,24.6,24.6,0,0,0,0-24.87,24.88,24.88,0,0,0-9.14-9.08A24.58,24.58,0,0,0,84.19,24.43ZM84,27.08a21.87,21.87,0,0,1,11.2,3,22.29,22.29,0,0,1,8.13,8.09,21.33,21.33,0,0,1,3,11,21.07,21.07,0,0,1-3,11,22.52,22.52,0,0,1-27.89,9.22,22.4,22.4,0,0,1-7.15-4.73,21.68,21.68,0,0,1-4.81-7,21.18,21.18,0,0,1-1.71-8.43,21.52,21.52,0,0,1,3-11,22.24,22.24,0,0,1,8.13-8.1A21.76,21.76,0,0,1,84,27.08Zm0,4.26a17.44,17.44,0,0,0-8.93,2.38,17.72,17.72,0,0,0-6.51,6.47,17.47,17.47,0,0,0,0,17.66,17.9,17.9,0,0,0,6.52,6.5,17.74,17.74,0,0,0,17.87,0,17.85,17.85,0,0,0,6.53-6.5,17.44,17.44,0,0,0,0-17.64A17.8,17.8,0,0,0,93,33.73,17.42,17.42,0,0,0,84,31.34Zm.16,3.09a15.17,15.17,0,0,1,13,7.34,14.26,14.26,0,0,1,2,7.42,13.92,13.92,0,0,1-2,7.28,15.24,15.24,0,0,1-20.54,5.35,14.9,14.9,0,0,1-5.51-5.35,13.83,13.83,0,0,1-2-7.28,14.17,14.17,0,0,1,2-7.42,15.14,15.14,0,0,1,13-7.34Zm0,4.18A10.22,10.22,0,0,0,78.92,40a10.82,10.82,0,0,0-3.87,3.88,10.49,10.49,0,0,0,0,10.59,10.74,10.74,0,0,0,14.5,3.8,10.36,10.36,0,0,0,3.88-3.81,10.48,10.48,0,0,0,0-10.57A10.82,10.82,0,0,0,89.54,40,10.38,10.38,0,0,0,84.19,38.61Z" transform="translate(-6.71 -18.66)"/><path class="cls-1" d="M151.56,20A29.62,29.62,0,0,1,177.12,34.5a28.52,28.52,0,0,1,1.69,25.65,29.19,29.19,0,0,1-6.39,9.31A29.67,29.67,0,0,1,151.56,78,29.62,29.62,0,0,1,126,63.49a28.55,28.55,0,0,1,0-29A29.56,29.56,0,0,1,151.56,20Zm-.27,4.4a24.82,24.82,0,0,0-24.93,24.91,24.25,24.25,0,0,0,3.33,12.38,24.77,24.77,0,0,0,9.08,9.1,25.05,25.05,0,0,0,25,0,25,25,0,0,0,9.15-9.1,23.93,23.93,0,0,0,3.39-12.38A24.19,24.19,0,0,0,173,36.85a24.88,24.88,0,0,0-9.14-9.08A24.52,24.52,0,0,0,151.29,24.43Zm-.16,2.65a21.92,21.92,0,0,1,11.2,3,22.29,22.29,0,0,1,8.13,8.09,21.42,21.42,0,0,1,3,11,21.16,21.16,0,0,1-3,11,22.52,22.52,0,0,1-27.89,9.22,22.45,22.45,0,0,1-7.16-4.73,21.66,21.66,0,0,1-4.8-7,21,21,0,0,1-1.72-8.43,21.43,21.43,0,0,1,3-11,22.24,22.24,0,0,1,8.13-8.1A21.73,21.73,0,0,1,151.13,27.08Zm0,4.26a17.5,17.5,0,0,0-8.94,2.38,17.69,17.69,0,0,0-6.5,6.47,17.47,17.47,0,0,0,0,17.66,17.83,17.83,0,0,0,6.52,6.5,17.74,17.74,0,0,0,17.87,0,17.93,17.93,0,0,0,6.53-6.5,17.44,17.44,0,0,0,0-17.64,17.8,17.8,0,0,0-6.51-6.47A17.47,17.47,0,0,0,151.13,31.34Zm.16,3.09a15,15,0,0,1,7.53,2,14.79,14.79,0,0,1,5.49,5.36,14.17,14.17,0,0,1,2,7.42,13.83,13.83,0,0,1-2,7.28,15.24,15.24,0,0,1-20.54,5.35,15,15,0,0,1-5.51-5.35,13.83,13.83,0,0,1-2-7.28,14.17,14.17,0,0,1,2-7.42,15.17,15.17,0,0,1,13-7.34Zm0,4.18A10.26,10.26,0,0,0,146,40a10.87,10.87,0,0,0-3.86,3.88,10.49,10.49,0,0,0,0,10.59,10.7,10.7,0,0,0,18.38,0,10.48,10.48,0,0,0,0-10.57A10.77,10.77,0,0,0,156.63,40,10.37,10.37,0,0,0,151.29,38.61Z" transform="translate(-6.71 -18.66)"/><path class="cls-1" d="M224.13,54.8V26.36a6.14,6.14,0,0,1,1.76-4.6,5.58,5.58,0,0,1,4-1.73,5.7,5.7,0,0,1,2.73.68,5,5,0,0,1,2,2,6.6,6.6,0,0,1,.73,3.22V74.31c0,2.75-1.07,4.12-3.23,4.12a4.92,4.92,0,0,1-2.86-1,5.78,5.78,0,0,1-2-2.56L207.94,25.43a1.66,1.66,0,0,0-1.65-1.3c-.74,0-1.17.5-1.3,1.51a2.3,2.3,0,0,1,.14.55,4.77,4.77,0,0,0,.14.61l17.14,43.35a8.33,8.33,0,0,1,.44,2.79,5.16,5.16,0,0,1-1.67,3.93,5.61,5.61,0,0,1-4,1.56A5.4,5.4,0,0,1,214,77.28,7.13,7.13,0,0,1,211.62,74l-19-47.95v46.3a1.21,1.21,0,0,0,.43,1,1.51,1.51,0,0,0,1,.36,1.33,1.33,0,0,0,1.51-1.51V46.08a2.5,2.5,0,0,1,.61-1.78,1.85,1.85,0,0,1,1.41-.66,2.19,2.19,0,0,1,1.6.62,2.24,2.24,0,0,1,.63,1.68V73.08A4.85,4.85,0,0,1,198.09,77,6.05,6.05,0,0,1,194,78.43,5.4,5.4,0,0,1,190.27,77a4.84,4.84,0,0,1-1.56-3.78V24.13a5.75,5.75,0,0,1,.93-3.48A2.77,2.77,0,0,1,192,19.38a3.83,3.83,0,0,1,2.5,1,6.17,6.17,0,0,1,1.82,2.78l19.58,49.81c.12.35.53.62,1.23.79.87,0,1.3-.45,1.3-1.35a2.93,2.93,0,0,0-.08-.69,2.85,2.85,0,0,1-.07-.47L201.39,28.08a19.37,19.37,0,0,1-.87-3.51A5,5,0,0,1,202,20.76a5.21,5.21,0,0,1,3.71-1.38,6.61,6.61,0,0,1,3.92,1.26,7.77,7.77,0,0,1,2.71,3.79Zm.58,2.09,6.63,16.35V25.94a1.25,1.25,0,0,0-.42-1,1.55,1.55,0,0,0-1-.34c-1,0-1.44.5-1.44,1.51V54.94a1.66,1.66,0,0,1-.42,1.31,2.64,2.64,0,0,1-1.38.5,5.63,5.63,0,0,1-.86-.08,7.19,7.19,0,0,0-1-.07C224.76,56.6,224.71,56.69,224.71,56.89Z" transform="translate(-6.71 -18.66)"/><path class="cls-1" d="M273.67,74.17a8.87,8.87,0,0,0,4.47-.87,3.37,3.37,0,0,0,1.43-3.15V51.57a5.51,5.51,0,0,1,5.63-5.91,6.59,6.59,0,0,1,2.93.66,5.09,5.09,0,0,1,2.16,2,6,6,0,0,1,.8,3.13V72.8q0,1.53,1.23,1.8a2,2,0,0,0,1.12-.61,1.69,1.69,0,0,0,.46-1.19V48.32a2.38,2.38,0,0,1,.61-1.75,2,2,0,0,1,1.48-.63,2.41,2.41,0,0,1,1.66.58,2.12,2.12,0,0,1,.64,1.66v25.2a5.16,5.16,0,0,1-1.74,4.09A6,6,0,0,1,292.46,79a5.49,5.49,0,0,1-3.85-1.48A5.3,5.3,0,0,1,287,73.38V51.85c0-1-.5-1.44-1.51-1.44s-1.44.43-1.44,1.3V74q0,4.81-11,4.82A29.63,29.63,0,0,1,246,60.75a29.57,29.57,0,0,1,0-22.7,30,30,0,0,1,6.3-9.45,29.34,29.34,0,0,1,9.42-6.4,28.61,28.61,0,0,1,11.4-2.31A34.42,34.42,0,0,1,280.68,21a21.72,21.72,0,0,1,7.26,3.27,7,7,0,0,1,3.3,5.44,5.33,5.33,0,0,1-.77,2.68,6.69,6.69,0,0,1-2.07,2.26,5.3,5.3,0,0,1-2.78,1,.39.39,0,0,0-.17-.13l-.11,0a10.79,10.79,0,0,1-4.15-1.41,33.85,33.85,0,0,0-3.83-1.82,14.88,14.88,0,0,0-4.84-.57,17.74,17.74,0,0,0-6.72,1.39,17,17,0,0,0-5.52,3.77,17.73,17.73,0,0,0-3.73,5.69,20.42,20.42,0,0,0-1.46,7.15,16.94,16.94,0,0,0,2.4,8.71A18.94,18.94,0,0,0,263.74,65a15.59,15.59,0,0,0,8.06,2.53,9.35,9.35,0,0,1,.93-.17,2.86,2.86,0,0,0,1.14-.37,1,1,0,0,0,.38-.91,1.57,1.57,0,0,0-.44-1.13,1.73,1.73,0,0,0-1.29-.45,13.74,13.74,0,0,1-7.17-2A15.26,15.26,0,0,1,260,57a14.44,14.44,0,0,1-2.08-7.21,15.59,15.59,0,0,1,7.19-13.08,13.27,13.27,0,0,1,7.28-2.11q5.73,0,9.15,2.81A3.27,3.27,0,0,1,282.81,40a1.76,1.76,0,0,1-1.73,2,17.21,17.21,0,0,1-2.68-1.19,25.06,25.06,0,0,0-2.73-1.28,7.76,7.76,0,0,0-2.43-.49,10.86,10.86,0,0,0-5.47,1.44,10.72,10.72,0,0,0-4,3.89,10.42,10.42,0,0,0-1.49,5.33s0,0,.06.05a.28.28,0,0,1,0,.09A10,10,0,0,0,265.49,57,11.15,11.15,0,0,0,273,60.13a6,6,0,0,1,6,6.05,5.35,5.35,0,0,1-1.56,3.89A6,6,0,0,1,273,71.66,21.65,21.65,0,0,1,264.69,70a23.58,23.58,0,0,1-7.19-4.64,22.54,22.54,0,0,1-5-6.91,20.21,20.21,0,0,1-1.92-8.34,1.33,1.33,0,0,0,.16-.65,24.43,24.43,0,0,1,3-11.18,20.68,20.68,0,0,1,7.81-8A22.19,22.19,0,0,1,273,27.38a20,20,0,0,1,5.66.84A27.68,27.68,0,0,1,283,30a9.58,9.58,0,0,0,2.36,1l.14.16a1.53,1.53,0,0,0,1.37-1.61q-.17-1.05-2.52-2.28a26.82,26.82,0,0,0-5.76-2.06,26,26,0,0,0-6.05-.83,23.08,23.08,0,0,0-9.3,1.94,25.27,25.27,0,0,0-8,5.4,25.77,25.77,0,0,0-5.46,8,24.16,24.16,0,0,0-2,9.56c.05,0,.09,0,.11,0a.16.16,0,0,1,0,.09,23.66,23.66,0,0,0,3.42,12.43,24.72,24.72,0,0,0,9.34,9A26.36,26.36,0,0,0,273.67,74.17Z" transform="translate(-6.71 -18.66)"/><path class="cls-1" d="M312.55,67.19V25.43a7,7,0,0,1,1.68-5,5.32,5.32,0,0,1,4-1.78,5.68,5.68,0,0,1,4.07,1.6A5.83,5.83,0,0,1,324,24.71V63.22c0,1-.77,1.65-2.3,1.81-1.49-.18-2.23-.88-2.23-2.09l.14-37.79a1.74,1.74,0,0,0-.47-1.26,1.59,1.59,0,0,0-1.19-.48c-.77,0-1.16.53-1.16,1.58V66.32h26.56a6,6,0,0,1,4.5,1.62,5.82,5.82,0,0,1-.12,8.08,6.5,6.5,0,0,1-4.8,1.69H316.08a10.88,10.88,0,0,1-7.63-2.64,9.51,9.51,0,0,1-2.88-7.38V22a3.23,3.23,0,0,1,.59-2,1.8,1.8,0,0,1,1.5-.76c1.29,0,1.94,1,1.94,3V67.35a5.45,5.45,0,0,0,2.09,4.72,8.83,8.83,0,0,0,5.39,1.54h26.44c.86,0,1.29-.41,1.29-1.22a1.86,1.86,0,0,0-.44-1.24,1.62,1.62,0,0,0-1.29-.51H315.15Q312.56,70.64,312.55,67.19Z" transform="translate(-6.71 -18.66)"/><path class="cls-1" d="M355.48,76.34V51a2.61,2.61,0,0,0-.58-1.51L342.66,28.59a9.38,9.38,0,0,1-1.44-4,5.21,5.21,0,0,1,1.64-3.93,5.39,5.39,0,0,1,3.83-1.56,6.24,6.24,0,0,1,5.69,3.47l13.47,22.67a10.08,10.08,0,0,1,1,4.91V72.94q0,1,1.23,1.23c1.15-.16,1.72-.62,1.72-1.37V51.85a11.12,11.12,0,0,1,1.79-5.61l12.26-20.3a2.05,2.05,0,0,0,.28-1.09c0-.76-.44-1.14-1.3-1.14a1.76,1.76,0,0,0-1.37.86l-12.1,19.37a1.26,1.26,0,0,1-.56.56,1.35,1.35,0,0,1-.58-.72l-12-19.93a6.89,6.89,0,0,1-.4-1l-.18-.54a2.3,2.3,0,0,1,.63-1.65,2,2,0,0,1,1.53-.66,2.08,2.08,0,0,1,1.95,1.29l9.14,15.2,8.28-13.69a7.91,7.91,0,0,1,2.84-2.9,6.83,6.83,0,0,1,3.49-1,5.5,5.5,0,0,1,3.76,1.39A4.68,4.68,0,0,1,388.87,24a7.76,7.76,0,0,1-1.07,3.81L375.41,48.32a8.41,8.41,0,0,0-1.58,3.83V73.08A4.92,4.92,0,0,1,372.19,77a5.79,5.79,0,0,1-4,1.44,5.94,5.94,0,0,1-4-1.54,5.37,5.37,0,0,1-1.74-4.23V49.83a7.86,7.86,0,0,0-.79-2.8L348,24.27a1.46,1.46,0,0,0-1.37-.86c-.73,0-1.16.43-1.3,1.3l.23.51c.11.24.18.39.2.42l12.82,21.81a6.19,6.19,0,0,1,.79,3.1V76a1.82,1.82,0,0,1-.59,1.43,2.16,2.16,0,0,1-1.5.52C356.07,78,355.48,77.44,355.48,76.34Z" transform="translate(-6.71 -18.66)"/><path class="cls-1" d="M432.94,42.58l10,9.93a12.18,12.18,0,0,1,2.76,3.72,11.35,11.35,0,0,1,.85,4.62A10.29,10.29,0,0,1,445,66.07a10.68,10.68,0,0,1-3.9,3.77,10.46,10.46,0,0,1-5.23,1.38,10.21,10.21,0,0,1-6.39-2.13,11.13,11.13,0,0,1-3.9-5.43,1.55,1.55,0,0,0-1.67-1.44,1.09,1.09,0,0,0-.79.44,2,2,0,0,0-.49,1c.06,0,.1,0,.11.06a.16.16,0,0,1,0,.08,12.28,12.28,0,0,0,2.51,5.14,14.13,14.13,0,0,0,4.76,3.8,13.17,13.17,0,0,0,6,1.43,13,13,0,0,0,6.72-1.83,13.68,13.68,0,0,0,4.93-5,13,13,0,0,0,1.81-6.68,14.24,14.24,0,0,0-.73-4.91,11.49,11.49,0,0,0-2.59-3.94L435.47,41a2.13,2.13,0,0,1-.72-1.51,1.88,1.88,0,0,1,.54-1.33,2.51,2.51,0,0,1,1.33-.76,3,3,0,0,1,1.81.65l10.44,10.43A17.21,17.21,0,0,1,452.52,54a18.45,18.45,0,0,1,1.09,6.68,17.47,17.47,0,0,1-2.32,8.83A17.66,17.66,0,0,1,445,76a17.44,17.44,0,0,1-8.78,2.45,18.3,18.3,0,0,1-8.29-2,18.53,18.53,0,0,1-6.57-5.34,14.48,14.48,0,0,1-3-7.29,6,6,0,0,1,1.6-4.2,4.93,4.93,0,0,1,3.73-1.71,6.86,6.86,0,0,1,3.34.85,5.12,5.12,0,0,1,2.27,2.4c.3.67.61,1.31.91,1.93a9,9,0,0,0,1.17,1.77,5.39,5.39,0,0,0,1.88,1.37,6.69,6.69,0,0,0,2.82.54,5.94,5.94,0,0,0,4.3-1.75,6.17,6.17,0,0,0,1.89-4.3A7.41,7.41,0,0,0,440,55.46L430.15,46a18.92,18.92,0,0,1-3.2-4,8.74,8.74,0,0,1-1.06-4.31,9.82,9.82,0,0,1,1.4-5.11,10.18,10.18,0,0,1,3.86-3.73,11,11,0,0,1,5.47-1.38,10,10,0,0,1,8.58,5,2.15,2.15,0,0,0,1.8,1.31,1.24,1.24,0,0,0,1.16-1.16v-.29a11.38,11.38,0,0,0-4.39-5.8,13,13,0,0,0-14-.52,13.82,13.82,0,0,0-5,4.89,13.31,13.31,0,0,0-1.94,6.76c.06,0,.1,0,.11,0a.16.16,0,0,1,0,.09,12.77,12.77,0,0,0,.91,5,12.91,12.91,0,0,0,3,4.18l10.3,10.28a2,2,0,0,1,.51,1.3c0,1-.65,1.74-2,2.37a3,3,0,0,1-1.44-.72l-10.21-10a16.29,16.29,0,0,1-4-5.55,20,20,0,0,1-1.23-6.84,17.77,17.77,0,0,1,2.34-9,17.52,17.52,0,0,1,15.07-8.82,17,17,0,0,1,7.26,1.64,17.87,17.87,0,0,1,5.92,4.37,12.91,12.91,0,0,1,3.11,5.8A6.33,6.33,0,0,1,447,37.91l-.14-.16a5.76,5.76,0,0,1-5.33-3.3,4.33,4.33,0,0,0-2.28-2.17,7,7,0,0,0-2.76-.72,5.76,5.76,0,0,0-4.29,1.8,6,6,0,0,0-1.76,4.39A6.56,6.56,0,0,0,432.94,42.58Z" transform="translate(-6.71 -18.66)"/><path class="cls-1" d="M491.19,20A29.65,29.65,0,0,1,516.75,34.5a28.47,28.47,0,0,1,1.68,25.65,29,29,0,0,1-6.38,9.31A29.67,29.67,0,0,1,491.19,78a29.58,29.58,0,0,1-25.57-14.5,28.55,28.55,0,0,1,0-29A29.53,29.53,0,0,1,491.19,20Zm-.27,4.4A24.82,24.82,0,0,0,466,49.34a24.25,24.25,0,0,0,3.33,12.38,24.77,24.77,0,0,0,9.08,9.1,25.05,25.05,0,0,0,25,0,25.18,25.18,0,0,0,9.15-9.1A23.92,23.92,0,0,0,516,49.34a24.18,24.18,0,0,0-3.37-12.49,24.88,24.88,0,0,0-9.14-9.08A24.55,24.55,0,0,0,490.92,24.43Zm-.16,2.65a21.86,21.86,0,0,1,11.19,3,22.14,22.14,0,0,1,8.13,8.09,21.33,21.33,0,0,1,3,11,21.07,21.07,0,0,1-3,11,21.86,21.86,0,0,1-8.11,8,22.65,22.65,0,0,1-19.77,1.24A22.34,22.34,0,0,1,475,64.65a21.84,21.84,0,0,1-4.81-7,21.18,21.18,0,0,1-1.71-8.43,21.43,21.43,0,0,1,3-11,22.24,22.24,0,0,1,8.13-8.1A21.71,21.71,0,0,1,490.76,27.08Zm0,4.26a17.45,17.45,0,0,0-8.94,2.38,17.72,17.72,0,0,0-6.51,6.47,17.51,17.51,0,0,0,0,17.66,17.75,17.75,0,0,0,6.52,6.5,17.74,17.74,0,0,0,17.87,0,17.93,17.93,0,0,0,6.53-6.5,17.44,17.44,0,0,0,0-17.64,17.75,17.75,0,0,0-6.52-6.47A17.41,17.41,0,0,0,490.76,31.34Zm.16,3.09a15.14,15.14,0,0,1,13,7.34,14.17,14.17,0,0,1,2,7.42,13.83,13.83,0,0,1-2,7.28,15.23,15.23,0,0,1-26.05,0,13.83,13.83,0,0,1-2-7.28,14.17,14.17,0,0,1,2-7.42,15.14,15.14,0,0,1,13-7.34Zm0,4.18A10.26,10.26,0,0,0,485.64,40a10.9,10.9,0,0,0-3.87,3.88,10.46,10.46,0,0,0,0,10.59,10.64,10.64,0,0,0,9.15,5.2,10.66,10.66,0,0,0,5.35-1.4,10.4,10.4,0,0,0,3.87-3.81,10.45,10.45,0,0,0,0-10.57A10.77,10.77,0,0,0,496.26,40,10.37,10.37,0,0,0,490.92,38.61Z" transform="translate(-6.71 -18.66)"/><path class="cls-1" d="M541.08,24.57a1.62,1.62,0,0,0-1.13.48,1.52,1.52,0,0,0-.52,1.17V72.94a6.22,6.22,0,0,1-1.74,4.63,5.75,5.75,0,0,1-4.17,1.72,5.16,5.16,0,0,1-3.85-1.67,6.24,6.24,0,0,1-1.61-4.54V21.9a1.67,1.67,0,0,1,.58-1.4A2.09,2.09,0,0,1,530,20c1.4,0,2.09.62,2.09,1.87V72.8a1.59,1.59,0,1,0,3.1,0V25.94c0-2.12.49-3.59,1.46-4.4a7.06,7.06,0,0,1,4.58-1.23h23.4a6.62,6.62,0,0,1,4.82,1.7,5.57,5.57,0,0,1-.14,8.22A7.4,7.4,0,0,1,564.06,32H546.62V43.15H562.9a5.87,5.87,0,0,1,4.37,1.55,5.35,5.35,0,0,1,1.53,3.91,5.66,5.66,0,0,1-1.75,4.15,6.57,6.57,0,0,1-4.87,1.76H546.62v22a2.55,2.55,0,0,1-.56,1.75,1.86,1.86,0,0,1-1.45.62,2,2,0,0,1-1.43-.72,2.52,2.52,0,0,1-.67-1.79V52.94c0-1.88,1-2.81,3-2.81h16.86a1.75,1.75,0,0,0,1.29-.46,1.48,1.48,0,0,0,.45-1.06c0-1-.39-1.44-1.16-1.44h-18a3,3,0,0,1-1.73-.52,1.79,1.79,0,0,1-.78-1.57V30.61a2.9,2.9,0,0,1,.81-2.12,2.85,2.85,0,0,1,2.14-.83h19.16c1.3,0,1.95-.53,1.95-1.58A1.53,1.53,0,0,0,566,25a1.42,1.42,0,0,0-1.1-.45Z" transform="translate(-6.71 -18.66)"/><path class="cls-1" d="M615.74,31.85V76.34a1.34,1.34,0,0,1-.69,1.07,3.65,3.65,0,0,1-1.7.58,1.82,1.82,0,0,1-1.8-1.95V30.18c0-1.87.89-2.8,2.66-2.8h13.34c.68,0,1-.43,1-1.3s-.48-1.51-1.44-1.51H609.69a1,1,0,0,0-.79.33,1.1,1.1,0,0,0-.28.74v47.3a5,5,0,0,1-1.76,4,6.41,6.41,0,0,1-4.22,1.46A6,6,0,0,1,598.58,77a5,5,0,0,1-1.7-4V25.43c0-.4-.08-.64-.24-.73a2.31,2.31,0,0,0-1-.13H581.83c-.54,0-.9.4-1.07,1.21.17,1.07.58,1.6,1.21,1.6h12.39a1.73,1.73,0,0,1,1.36.56,2,2,0,0,1,.51,1.38A2.29,2.29,0,0,1,595.5,31a2.63,2.63,0,0,1-1.93.71h-11.3a5.9,5.9,0,0,1-4.53-1.8,6.69,6.69,0,0,1-1.82-4.26,6.17,6.17,0,0,1,1.58-3.88,4.9,4.9,0,0,1,3.84-1.59h15a4.68,4.68,0,0,1,3.55,1.41,5,5,0,0,1,1.34,3.57V72.52a1.56,1.56,0,0,0,1.51,1.65c1.06-.17,1.58-.72,1.58-1.65V25.15a5.28,5.28,0,0,1,1.23-3.54,4,4,0,0,1,3.24-1.44h18.86a5.45,5.45,0,0,1,4.25,1.69A5.92,5.92,0,0,1,633.46,26a5.86,5.86,0,0,1-1.64,4.14,5.92,5.92,0,0,1-4.55,1.76Z" transform="translate(-6.71 -18.66)"/><path class="cls-1" d="M658.94,24.85l5.47,21.53,7.7-16.49a2.18,2.18,0,0,1,2.09-1.65,2.76,2.76,0,0,1,2.59,2.08l6.55,14.9a5.08,5.08,0,0,1,.3,1.37,2.34,2.34,0,0,1-.63,1.66,2.46,2.46,0,0,1-1.6.79,2.08,2.08,0,0,1-1.67-1.44l-5.61-11.94L664,57.61c-.27.56-.55.87-.86.94s-.56-.34-.76-.91a4.08,4.08,0,0,1-.31-1.19l-7.49-30.67c-.28-1.29-.88-1.93-1.81-1.93-.63,0-1,.52-1.14,1.58a1.23,1.23,0,0,1,.14.65l11.37,46.14a6.94,6.94,0,0,1,.14,1,4.49,4.49,0,0,1-1.74,3.57,6.26,6.26,0,0,1-4.15,1.46A5.47,5.47,0,0,1,653.8,77a7,7,0,0,1-2.2-4l-12-48.81c0-1.88.55-2.81,1.66-2.81a2.62,2.62,0,0,1,2.6,2.23L656,72.66a2.16,2.16,0,0,0,1.79,1.94,1.07,1.07,0,0,0,.81-.38,1.36,1.36,0,0,0,.35-1v-.58L647.48,27.38a12.72,12.72,0,0,1-.35-2.6,5.87,5.87,0,0,1,1.52-4.28,5,5,0,0,1,3.67-1.56,6.34,6.34,0,0,1,4.07,1.48A8,8,0,0,1,658.94,24.85Zm21.59,42.63L674,53.22l-7.07,15.19a3,3,0,0,1-2.37,1.74,2.14,2.14,0,0,1-1.51-.66,2.46,2.46,0,0,1-.79-1.5,4.88,4.88,0,0,1,.28-.8L672,46.24A3.31,3.31,0,0,1,673,45a2.09,2.09,0,0,1,1.25-.48,2.19,2.19,0,0,1,2.16,1.58L681,57.61,690,25a7.76,7.76,0,0,1,2.43-4.2,5.75,5.75,0,0,1,3.76-1.41,5.08,5.08,0,0,1,3.71,1.46,5.39,5.39,0,0,1,1.47,4,10.12,10.12,0,0,1-.14,1.95l-12,46.28c0,1,.31,1.51.93,1.67a2.34,2.34,0,0,0,2-1.81L705,24.13a4.4,4.4,0,0,1,1-1.86,1.81,1.81,0,0,1,1.28-.66c1.25,0,1.88.75,1.88,2.24v.72L696.6,72.94a7.57,7.57,0,0,1-2.73,4.21,7,7,0,0,1-4.34,1.56,4.7,4.7,0,0,1-3.42-1.34,5.39,5.39,0,0,1-1.47-3.78c.05-.27.1-.65.14-1.14s.1-.85.14-1.09l11.82-45.28v-.79c0-1.44-.44-2.16-1.3-2.16-.59,0-1.09.79-1.52,2.37L683.2,67c-.21,1.34-.67,2.09-1.37,2.23C681.4,69.13,681,68.53,680.53,67.48Z" transform="translate(-6.71 -18.66)"/><path class="cls-1" d="M728,50l-5.1-12.4-13,34.07a6.37,6.37,0,0,1-.28,1,1.57,1.57,0,0,0,.42,1.06,1.84,1.84,0,0,0,1,.59,2,2,0,0,0,1.58-1.51l5-13.09a3.13,3.13,0,0,1,3.11-2.1h12a4,4,0,0,1,4,3l4.89,12.88a1.54,1.54,0,0,0,1.16,1.15,1.25,1.25,0,0,0,1-.44,1.66,1.66,0,0,0,.37-1.08v-.86L727.13,27.94c-.13-.41-.32-1.25-.58-2.51a5.42,5.42,0,0,1,1.72-4,5.49,5.49,0,0,1,7.25-.56,6.79,6.79,0,0,1,2.26,3.29l19.74,51.48a2.66,2.66,0,0,1,.14,1.08c0,1-.67,1.58-2,1.58a2.69,2.69,0,0,1-1.47-.47,2.06,2.06,0,0,1-.9-1.25L733.9,25.43a1.6,1.6,0,0,0-1.58-1.3c-.66,0-1.07.5-1.22,1.51a1,1,0,0,1,.28.72l16.84,44.28a7.68,7.68,0,0,1,.44,2.6,4.19,4.19,0,0,1-1.78,3.59,7.08,7.08,0,0,1-4.26,1.3,6.52,6.52,0,0,1-3.16-.78,4.16,4.16,0,0,1-2-2.17L732.32,61.5H721.8L717,73.73q-1.75,4.84-5.91,4.84a5.28,5.28,0,0,1-3.84-1.67,6.2,6.2,0,0,1-1.78-4.24,20.68,20.68,0,0,1,.58-3l15-39.53a4.45,4.45,0,0,1,.88-1.52,1.56,1.56,0,0,1,1.07-.58c.88,0,1.6.7,2.17,2.1l7.41,19.38a5,5,0,0,1,.14,1.44,3.25,3.25,0,0,1-.87,2.33,3.12,3.12,0,0,1-2.38.91h-8.84a1.85,1.85,0,0,1-1.42-.58,2.47,2.47,0,0,1-.67-1.36A2.28,2.28,0,0,1,721.08,50Z" transform="translate(-6.71 -18.66)"/><path class="cls-1" d="M795.7,53.8a6.52,6.52,0,0,1-.86-1.51,1.33,1.33,0,0,1,1.07-1,15.21,15.21,0,0,0,7.46-4.1,12.75,12.75,0,0,0,3.55-7.41,13.64,13.64,0,0,0,.07-1.52,13.32,13.32,0,0,0-1.9-6.83,14.58,14.58,0,0,0-5.16-5.19,13.37,13.37,0,0,0-7-1.95h-6q-3.75,0-3.75,3.11v46a4.81,4.81,0,0,1-1.69,3.9,6.14,6.14,0,0,1-4.06,1.43,5.78,5.78,0,0,1-3.9-1.43,4.91,4.91,0,0,1-1.65-3.9V25.5c0-.82-.51-1.23-1.51-1.23s-1.44.46-1.44,1.37V76.19a2.42,2.42,0,0,1-.61,1.75,2.18,2.18,0,0,1-1.64.63,1.83,1.83,0,0,1-1.35-.63,2.24,2.24,0,0,1-.59-1.6V25.78a5.73,5.73,0,0,1,5.76-6.05,6.07,6.07,0,0,1,4.13,1.45,5.22,5.22,0,0,1,1.64,4.11V73.08a1.59,1.59,0,0,0,1.44,1.67,1.46,1.46,0,0,0,1.38-1.51V25.64a4.69,4.69,0,0,1,1.55-3.6,5.19,5.19,0,0,1,3.63-1.44h9.42a16.65,16.65,0,0,1,8.77,2.47,18.57,18.57,0,0,1,6.48,6.61,17.21,17.21,0,0,1,2.4,8.77,10.57,10.57,0,0,1-.07,1.45,16.69,16.69,0,0,1-3,8.44,21.28,21.28,0,0,1-7.1,6l11.52,16.84a5,5,0,0,1,.86,2.81,3.81,3.81,0,0,1-1.94,3.24,8,8,0,0,1-4.54,1.3A5.81,5.81,0,0,1,802,76.19L784.38,49.48a7,7,0,0,1-.93-2.45c.18-1.68,1.57-2.53,4.17-2.53h4.84a8.24,8.24,0,0,0,5.14-1.62,5.43,5.43,0,0,0,2.13-4.57,6.26,6.26,0,0,0-1.8-4.43A5.66,5.66,0,0,0,793.67,32h-7.56c-1.35,0-2.12-.75-2.31-2.24.18-1.48,1-2.23,2.3-2.23h7.7a8.92,8.92,0,0,1,5,1.5,10.65,10.65,0,0,1,3.63,4,10.88,10.88,0,0,1,1.32,5.19,10.69,10.69,0,0,1-.07,1.44A11.73,11.73,0,0,1,802,44.23a9.9,9.9,0,0,1-3.39,3.3,8.66,8.66,0,0,1-4.51,1.23h-5.62l17,24.62a4.11,4.11,0,0,0,2.23,1.22c.77,0,1.16-.29,1.16-.87a2.31,2.31,0,0,0-.3-.93Z" transform="translate(-6.71 -18.66)"/><path class="cls-1" d="M829.22,73.45l30.25.14a1.42,1.42,0,0,0,1-.39,1.32,1.32,0,0,0,.4-1c0-1-.44-1.44-1.3-1.44H844.43c-1.89,0-2.92-.79-3.1-2.37.19-1.4,1.13-2.09,2.82-2.09h15.47a6,6,0,0,1,4.71,10A5.21,5.21,0,0,1,860.2,78H828.94a6.87,6.87,0,0,1-5.11-1.88A7,7,0,0,1,822,70.94V25.43A5.84,5.84,0,0,1,823.62,21a5.54,5.54,0,0,1,4-1.58,5.9,5.9,0,0,1,4,1.5,5.18,5.18,0,0,1,1.7,4.11V67a1.53,1.53,0,0,0,1.23,1.67c1-.2,1.58-.76,1.58-1.67V53.22a3.46,3.46,0,0,1,.87-2.43,3,3,0,0,1,2.36-1h16.86c1.29,0,1.93-.45,1.93-1.36S857.72,47,856.82,47H839c-1.78,0-2.67-.84-2.67-2.53v-14A3.06,3.06,0,0,1,837.2,28a4.56,4.56,0,0,1,2.83-.73h18.3a2.34,2.34,0,0,0,1.47-.42,1.25,1.25,0,0,0,.54-1,1.08,1.08,0,0,0-.42-.85,1.76,1.76,0,0,0-1.17-.36H835.87a2.19,2.19,0,0,1-2.39-2.09c.19-1.54,1-2.31,2.39-2.31h22.74a6.71,6.71,0,0,1,4.88,1.7,5.46,5.46,0,0,1,1.75,4.07A5.39,5.39,0,0,1,863.46,30a7,7,0,0,1-5,1.69H840.61v11H857a5.74,5.74,0,0,1,4.37,1.61,5.37,5.37,0,0,1,1.54,3.86,5.86,5.86,0,0,1-1.75,4.26,6.52,6.52,0,0,1-4.88,1.78H840.61V67.34A5.52,5.52,0,0,1,839,71.6a6.43,6.43,0,0,1-4.14,1.64,6.3,6.3,0,0,1-4.06-1.74,5.6,5.6,0,0,1-1.71-4.31v-42c0-.87-.4-1.3-1.22-1.3a1.6,1.6,0,0,0-1.13.42,1.54,1.54,0,0,0-.44,1.16V70.5a2.93,2.93,0,0,0,.78,2.14A2.82,2.82,0,0,0,829.22,73.45Z" transform="translate(-6.71 -18.66)"/></svg>